<svg width="200" height="43" viewBox="0 0 200 43" fill="none" xmlns="http://www.w3.org/2000/svg">
<path d="M36.996 31.8134L31.0399 41.2551L30.9233 41.1798L29.216 40.0615L27.5953 38.9979L27.4921 38.9277L22.2885 35.511L16.8021 31.9084L9.91078 36.5776L9.8251 36.6344L9.68472 36.7294L8.84758 37.2932L9.38432 39.9169C9.43428 40.1456 9.40249 40.3846 9.29451 40.5922C9.18667 40.8002 9.00908 40.9637 8.79284 41.0538C8.66014 41.1124 8.51675 41.143 8.37168 41.1436C8.21091 41.144 8.05252 41.105 7.91029 41.03C7.76789 40.9549 7.646 40.8461 7.5552 40.713L1.19238 31.7844L4.56268 29.9392L4.60809 29.9145L4.8032 29.8112L14.3319 24.5988C14.397 24.3458 14.464 24.0939 14.5301 23.8409L14.5632 23.716H6.20188V17.4658H4.48526L6.20188 13.7486V13.6546H6.24422V13.6495H13.151C11.4302 12.1616 10.7304 10.1955 10.4579 9.08038C10.2236 8.14281 9.80651 5.63057 11.3198 3.44669C11.6371 2.98319 12.0125 2.56227 12.4367 2.1942C12.4357 2.19084 12.4357 2.18723 12.4367 2.18387H12.445C12.9661 1.7336 13.5659 1.38353 14.2142 1.1513C14.8153 0.941993 15.4462 0.831122 16.0826 0.822953C18.5022 0.802301 20.3438 2.3966 21.089 3.1607L23.9174 1.55195C23.9757 1.51876 24.0446 1.50986 24.1094 1.52717C24.1738 1.54553 24.2285 1.58808 24.2622 1.6459C24.295 1.70432 24.3035 1.77332 24.2859 1.83797C24.2772 1.87002 24.2622 1.9 24.2418 1.92623C24.2215 1.95246 24.1961 1.9744 24.1672 1.99079L21.4472 3.53964C21.953 4.11076 22.3216 4.78991 22.5249 5.52526C22.7024 6.17815 22.747 6.86004 22.656 7.5305C23.2361 7.24344 23.8297 7.20008 24.2735 7.45719C24.4249 7.54611 24.5563 7.66528 24.6596 7.80724C24.7629 7.94944 24.8357 8.11151 24.8733 8.28324C25.0519 9.12685 24.2612 10.1419 22.9801 10.7325C22.9801 11.1187 22.9368 12.398 22.3938 13.5793C22.3732 13.6257 22.3494 13.6691 22.3267 13.7187L27.9535 13.9334V14.0367L29.6681 17.4679H27.9515V23.7232H21.4699L21.857 24.2395C22.2077 24.7052 22.6353 25.1075 23.1215 25.429L31.8534 31.2041L31.9793 31.2878L32.0825 31.3549L33.089 32.0209L35.2567 30.2728C35.4748 30.0974 35.7481 30.0052 36.0278 30.0126C36.3077 30.0197 36.5759 30.1263 36.7844 30.313C36.9949 30.5003 37.1314 30.7567 37.1695 31.0358C37.208 31.313 37.1477 31.5948 36.9991 31.8319L36.996 31.8134Z" fill="white"/>
<path d="M31.1279 41.657L30.7697 41.4216L29.0252 40.2755L27.4396 39.2346L27.3364 39.1665L20.2314 34.5003L16.8043 32.2514L9.77266 37.0167L9.17085 37.4235L9.67044 39.8583C9.73507 40.1519 9.69453 40.4589 9.55588 40.7257C9.4176 40.9929 9.18948 41.2028 8.91173 41.3184C8.74247 41.3912 8.56026 41.4292 8.376 41.4299C8.16889 41.4306 7.96478 41.3806 7.78144 41.2843C7.59849 41.188 7.44157 41.0487 7.32414 40.8785L0.772461 31.6886L14.0885 24.4008C14.1236 24.2686 14.1587 24.1323 14.1917 24.0033H5.91306V17.7531H4.02713L5.90479 13.6817V13.3637H6.06583V13.3575H12.4193C11.0062 11.882 10.4075 10.1256 10.169 9.14671L10.0999 8.86379H10.1061C9.8635 7.70938 9.63433 5.36132 11.0754 3.2807C11.3922 2.82091 11.7626 2.40044 12.1788 2.02819L12.2418 1.84441L12.3636 1.87227C12.8838 1.44457 13.4735 1.1093 14.1071 0.881019C14.7381 0.661519 15.4003 0.545061 16.0683 0.536133H16.1169C18.4828 0.536133 20.312 2.01167 21.1233 2.80778L23.7607 1.30849C23.8224 1.27336 23.8905 1.2509 23.961 1.24242C24.0301 1.23358 24.1003 1.23884 24.1674 1.2579C24.2361 1.27667 24.3003 1.30898 24.3563 1.35291C24.4121 1.39631 24.4588 1.45034 24.4936 1.5119C24.5288 1.57404 24.5513 1.64253 24.56 1.7134C24.5687 1.78427 24.5633 1.85614 24.5442 1.92493C24.5058 2.06316 24.4146 2.18075 24.2902 2.25227L21.8696 3.62763C22.2909 4.1707 22.6013 4.79136 22.7831 5.45426C22.9283 5.98914 22.9889 6.54344 22.9628 7.09706C23.4902 6.94321 23.995 6.98143 24.3924 7.21375C24.5794 7.32247 24.7415 7.46914 24.8683 7.64433C24.9953 7.81893 25.0849 8.01789 25.1315 8.22875C25.338 9.17251 24.5596 10.2608 23.2415 10.9217C23.2177 11.7871 23.0485 12.6423 22.7408 13.4515L28.2118 13.6632V13.9605L30.1059 17.749H28.218V24.0043H22.0245L22.0657 24.059C22.3962 24.4982 22.7995 24.8775 23.258 25.1804L32.2179 31.1063L33.0437 31.6577L35.0515 30.0407C35.3205 29.8171 35.6614 29.6987 36.0111 29.7074C36.3607 29.7162 36.6953 29.8514 36.9529 30.0882C37.2187 30.3166 37.3924 30.6339 37.4418 30.9809C37.4912 31.328 37.4128 31.6811 37.2213 31.9747L31.1279 41.657ZM16.8013 31.5565L16.9623 31.6598L20.5483 34.014L27.7586 38.7483L29.3379 39.7912L30.9524 40.8516L36.7516 31.6535C36.8652 31.4744 36.9113 31.2606 36.8817 31.0505C36.8524 30.8408 36.7496 30.6483 36.5916 30.5074C36.4335 30.3664 36.2304 30.2863 36.0187 30.2813C35.8066 30.276 35.5995 30.3462 35.4344 30.4795L33.0984 32.3567L31.6884 31.4274L22.9555 25.6512C22.4421 25.3121 21.9907 24.8875 21.6208 24.3956L20.8869 23.4116H27.6564V17.1553H29.1924L27.7132 14.1939L21.8614 13.9688L22.073 13.5444C22.0895 13.5103 22.1081 13.4752 22.1225 13.4411C22.6448 12.3053 22.6841 11.0662 22.683 10.7141V10.5283L22.8523 10.4508C24.0043 9.92216 24.73 9.02797 24.5834 8.32376C24.5544 8.19174 24.4981 8.06724 24.4182 7.95823C24.3389 7.84878 24.2376 7.757 24.1209 7.68872C23.7751 7.48737 23.2848 7.51835 22.779 7.76926L22.2918 8.01089L22.3651 7.47394C22.4498 6.84204 22.4073 6.1996 22.2402 5.58436C22.0504 4.89121 21.7031 4.25126 21.2255 3.71437L21.0397 3.50786H21.0325L20.8776 3.34677C20.218 2.66838 18.4415 1.09681 16.1293 1.09681H16.0869C15.483 1.10392 14.8841 1.20852 14.3135 1.40658C13.7005 1.6277 13.133 1.95912 12.6392 2.38444L12.5979 2.4216C12.2072 2.76896 11.8606 3.16291 11.5657 3.59461C10.1267 5.67213 10.5138 8.06562 10.7481 8.9939L10.8142 9.26235C11.1094 10.3352 11.7969 12.0823 13.3463 13.4184L13.9326 13.9264H6.43639L4.93549 17.1697H6.49007V23.4188H14.9453L14.842 23.7844L14.8152 23.8876L14.7471 24.1458C14.7017 24.3172 14.6573 24.4896 14.6108 24.6621L14.5798 24.7829L14.4704 24.8427L4.7053 30.1904L1.61888 31.8797L7.79384 40.5439C7.85696 40.6399 7.9432 40.7184 8.04465 40.7721C8.14639 40.8259 8.25991 40.8536 8.37499 40.8527C8.48143 40.8531 8.58683 40.8316 8.68466 40.7897C8.84061 40.7267 8.96879 40.6098 9.04595 40.4603C9.12341 40.3113 9.14499 40.1395 9.10684 39.976L8.53189 37.1623L9.75099 36.3362L16.8013 31.5565Z" fill="white"/>
<path d="M31.2875 42.3868L30.4824 41.8612L28.7358 40.7141L27.1492 39.6753L27.046 39.6061L19.6365 34.7407L16.8081 32.8821L9.93336 37.541L9.75373 37.6618L10.1821 39.7528C10.2729 40.1642 10.2163 40.5945 10.0222 40.9684C9.82801 41.3423 9.50863 41.636 9.11991 41.7983C8.88444 41.9008 8.63042 41.9539 8.37359 41.9542C8.08333 41.9535 7.79755 41.8827 7.54058 41.7477C7.28315 41.6137 7.06209 41.4191 6.89643 41.1808L0 31.5056L12.7627 24.5183H5.38112V18.2692H3.21339L5.38626 13.5576V12.8348H5.76096V12.8286H11.3042C10.5342 11.7578 9.97765 10.5487 9.66497 9.26728L9.46885 8.46187L9.507 8.4536C9.30055 7.09165 9.29127 4.9336 10.6497 2.97276C10.9633 2.5168 11.326 2.09676 11.7315 1.72025L11.8987 1.21947L12.2404 1.29484C12.7566 0.903856 13.3296 0.594267 13.9395 0.376876C14.6261 0.136888 15.347 0.00962482 16.0742 0H16.1279C18.4092 0 20.2053 1.23908 21.2107 2.14567L23.5064 0.83843C23.6282 0.767372 23.763 0.721402 23.9028 0.703183C24.0426 0.684692 24.1846 0.693814 24.3209 0.730031C24.4569 0.76692 24.5843 0.830426 24.6956 0.916906C24.8074 1.00268 24.9008 1.11016 24.9701 1.23288C25.0398 1.35575 25.0843 1.49124 25.1012 1.63146C25.118 1.7699 25.1071 1.91028 25.0693 2.04449C25.0311 2.18023 24.9662 2.30696 24.8783 2.41723C24.7907 2.52808 24.6819 2.6204 24.5583 2.68881L22.6373 3.78023C22.9293 4.25079 23.1522 4.76094 23.2989 5.295C23.4031 5.67667 23.4682 6.06798 23.493 6.46284C23.9039 6.4414 24.3124 6.53737 24.6708 6.73956C24.9208 6.88571 25.1377 7.08228 25.3077 7.31677C25.478 7.55106 25.5976 7.81834 25.6587 8.10151C25.8951 9.20945 25.1425 10.4361 23.7655 11.224C23.7282 11.8027 23.6313 12.3761 23.4765 12.935L28.7513 13.1415V13.8312L30.9696 18.2712H28.7585V24.5255H23.268C23.3629 24.6019 23.462 24.6732 23.5632 24.7403L32.5242 30.6672L33.0403 31.0069L34.7497 29.6305C35.654 28.9025 36.711 29.1524 37.3303 29.6945C37.6893 30.0054 37.9233 30.4359 37.9889 30.9063C38.0546 31.3766 37.9475 31.8549 37.6875 32.2522L31.2875 42.3868ZM2.38446 32.056L8.21669 40.2412C8.23189 40.2684 8.25396 40.2912 8.2807 40.3073C8.30794 40.323 8.33905 40.3309 8.37052 40.33C8.4032 40.3302 8.43554 40.3235 8.46548 40.3103C8.50985 40.2943 8.54665 40.2622 8.5687 40.2205C8.59059 40.1778 8.59537 40.1283 8.58211 40.0821L7.93488 36.9256L9.44612 35.9033L16.7865 30.9295L17.2396 31.2269L20.8267 33.5811L28.036 38.3154L29.4491 39.2447L30.791 40.1245L36.3053 31.3838C36.3517 31.3097 36.3704 31.2215 36.358 31.135C36.3458 31.0488 36.3034 30.9697 36.2382 30.9119C36.1733 30.8532 36.0894 30.8199 36.0018 30.818C35.9148 30.8153 35.8296 30.8434 35.7613 30.8975L33.126 33.0194L31.3959 31.8743L22.6641 26.0981C22.1009 25.7259 21.6055 25.26 21.1994 24.7207L19.8357 22.894H27.1286V16.6398H28.3405L27.3784 14.7161L21.0238 14.4714L21.603 13.3087C21.6164 13.2829 21.6298 13.2581 21.6411 13.2313C22.1201 12.1884 22.1573 11.0443 22.1573 10.7191V10.1956L22.6331 9.97767C23.6262 9.52334 24.1526 8.8243 24.069 8.43709C24.0555 8.37711 24.0298 8.32055 23.9936 8.27086C23.9574 8.22081 23.9114 8.17863 23.8584 8.14693C23.6726 8.04368 23.3423 8.07674 23.0078 8.24402L21.637 8.92239L21.8435 7.40246C21.9189 6.84075 21.8817 6.26965 21.7341 5.72247C21.5641 5.1067 21.2555 4.53804 20.8319 4.06006L20.773 3.99499L20.4995 3.71207C19.8894 3.08633 18.2409 1.62009 16.1258 1.62009H16.0856C15.5407 1.62706 15.0005 1.72153 14.4856 1.89991C13.9332 2.10035 13.4219 2.39949 12.9764 2.78276L12.9341 2.81994C12.5757 3.13699 12.2581 3.49735 11.9885 3.89277C10.6714 5.79475 11.0306 8.0065 11.2474 8.86766L11.3114 9.12581C11.5633 10.0345 12.2053 11.7423 13.6804 13.0176L15.332 14.4487H6.76433L5.75375 16.6398H7.01206V22.894H15.6303L15.3485 23.9266C15.3392 23.9576 15.331 23.9906 15.3227 24.0216L15.2546 24.2828C15.2092 24.4543 15.1648 24.6267 15.1183 24.7991L15.0296 25.1388L14.7199 25.3072L2.38446 32.056ZM21.4719 3.20406L21.4946 3.22884L24.0473 1.77808C24.0478 1.77603 24.0478 1.77391 24.0473 1.77187C24.0478 1.76984 24.0478 1.76773 24.0473 1.7657C24.0473 1.7657 24.0473 1.76569 24.0473 1.7595C24.0478 1.7578 24.0478 1.75602 24.0473 1.75433H24.0422H24.036H24.0287L21.4719 3.20406Z" fill="white"/>
<path d="M18.7368 15.7196C18.4515 15.7189 18.1665 15.7017 17.8832 15.668C16.4352 15.4911 15.0485 14.9784 13.8336 14.1708C11.605 12.655 10.7606 10.3255 10.4551 9.074L10.7472 9.00173C11.0424 10.2129 11.8579 12.4629 14.0029 13.9209C16.214 15.4243 19.7732 16.0593 21.3495 14.5652C21.4662 14.4538 21.5723 14.3318 21.6664 14.2007C21.8416 13.9645 21.9914 13.7105 22.1133 13.4428C22.6955 12.1748 22.6739 10.7839 22.6697 10.6291V10.5258L22.7595 10.4855C23.9621 9.96306 24.726 9.05439 24.5691 8.33366C24.5401 8.2039 24.4846 8.08155 24.406 7.97433C24.3278 7.86648 24.2284 7.7758 24.1138 7.70792C23.5172 7.36304 22.5655 7.70794 21.8429 8.52573L21.6158 8.32642C22.4292 7.39712 23.542 7.03055 24.2615 7.44668C24.4134 7.53524 24.5452 7.65446 24.6485 7.79673C24.7519 7.93877 24.8244 8.10092 24.8612 8.27273C25.0398 9.11634 24.2491 10.1314 22.968 10.722C22.968 11.1082 22.9247 12.3885 22.3828 13.5688C22.2531 13.8549 22.0933 14.1263 21.9058 14.3783C21.8018 14.5245 21.6839 14.6604 21.5539 14.7841C20.9139 15.3974 19.9301 15.7196 18.7368 15.7196Z" fill="#022F45"/>
<path d="M20.6142 11.9931C20.4138 12.2294 20.1638 12.4186 19.8818 12.5471C19.5999 12.6757 19.2931 12.7403 18.9833 12.7365C18.4425 12.7368 17.9206 12.5384 17.5165 12.1789C17.2297 11.9311 17.0227 11.6037 16.9219 11.2383C17.4576 11.7411 18.045 12.1149 18.7645 12.2264C19.39 12.3297 20.0155 12.2016 20.6163 11.9931H20.6142Z" fill="#022F45"/>
<path d="M16.723 12.492C16.3886 12.1348 16.4402 11.509 16.7705 11.1497C17.0802 10.7749 17.6995 10.6407 18.099 10.9277C17.8891 10.9305 17.6816 10.9736 17.4879 11.0547C16.916 11.2891 16.6456 11.8828 16.723 12.492Z" fill="#022F45"/>
<path d="M20.6768 6.91211C20.9193 7.59877 20.3557 8.38662 19.6352 8.46819C18.9198 8.58178 18.1653 7.97773 18.1983 7.2632C18.5297 7.73818 19.0241 8.04071 19.5702 7.97462C20.1162 7.90854 20.5013 7.45937 20.6768 6.91211Z" fill="#022F45"/>
<path d="M18.9033 6.23663C19.1614 5.424 20.3722 5.28461 20.7903 6.03632C20.6292 5.96895 20.4618 5.91776 20.2907 5.8835C19.7869 5.78128 19.3255 5.95061 18.9033 6.23663Z" fill="#022F45"/>
<path d="M10.5514 9.42103L10.4998 9.23516C10.284 8.46383 9.707 5.76575 11.3173 3.43938C12.0863 2.32834 13.0587 1.55702 14.2076 1.14399C14.8086 0.934506 15.4396 0.823605 16.076 0.815616C18.572 0.794965 20.4569 2.49251 21.1454 3.22357L21.2785 3.36401L10.5514 9.42103ZM16.1255 1.11714H16.0812C15.4786 1.12416 14.881 1.22877 14.3119 1.42691C13.2218 1.81825 12.298 2.55343 11.5661 3.60975C10.1364 5.66662 10.5153 8.04979 10.7403 8.96671L20.7924 3.2876C20.045 2.53796 18.3377 1.11508 16.1297 1.11508L16.1255 1.11714Z" fill="#022F45"/>
<path d="M18.4219 4.95198C17.4057 3.33424 15.8656 2.11403 14.0586 1.49495L14.1618 1.20996C16.0321 1.8514 17.6268 3.11356 18.681 4.78678L18.4219 4.95198Z" fill="#022F45"/>
<path d="M13.1354 7.8774C12.2755 6.10548 12.0289 4.09785 12.4345 2.17041L12.7308 2.23134C12.3375 4.09331 12.5751 6.03322 13.4059 7.74523L13.1354 7.8774Z" fill="#022F45"/>
<path d="M22.6072 7.79476L22.312 7.73796C22.4657 6.94825 22.4142 6.1323 22.1623 5.36823C21.9105 4.60407 21.4665 3.91747 20.873 3.37434L21.0795 3.15234C21.7098 3.73096 22.1814 4.46151 22.4493 5.27427C22.7168 6.08705 22.7712 6.95492 22.6072 7.79476Z" fill="#022F45"/>
<path d="M13.5462 7.60076C14.3462 7.57597 14.9665 8.25436 14.9067 8.96167C14.853 9.61115 14.2378 10.1522 13.5101 10.0975C13.5926 10.1925 14.0189 10.6912 13.9508 11.3851C13.8847 12.0583 13.3852 12.6438 12.6822 12.8668C12.3364 12.463 12.0142 12.0397 11.717 11.5988C11.2381 10.8884 11.2009 10.6881 11.235 10.5136C11.301 10.1708 11.5921 10.1863 12.0762 9.65659C12.4891 9.20948 12.4406 9.01639 12.9846 8.2812C13.1599 8.0448 13.3473 7.81769 13.5462 7.60076Z" fill="#022F45"/>
<path d="M12.3468 12.1504L10.6704 9.61954L10.6074 9.19723L12.995 7.87451L13.1808 8.72431L12.3468 12.1504Z" fill="#022F45"/>
<path d="M36.8817 31.74L30.9978 41.0651L27.6709 38.8792L31.8938 31.3848L33.0892 32.1768L35.3395 30.3657C36.2613 29.6222 37.5114 30.7405 36.8817 31.74Z" fill="#FEB703"/>
<path d="M31.04 41.2552L30.9234 41.1788L29.216 40.0615L27.5954 38.998L27.4922 38.9278L31.8504 31.1959L33.0891 32.0127L35.2568 30.2635C35.4749 30.088 35.748 29.9951 36.0279 30.0013C36.3082 30.0085 36.5769 30.1145 36.7866 30.3007C36.9967 30.4881 37.1329 30.7445 37.1706 31.0235C37.2097 31.3008 37.1489 31.583 36.9992 31.8196L31.04 41.2552ZM27.8514 38.8359L29.3657 39.8303L30.9574 40.8752L36.769 31.6647C36.8837 31.4821 36.9301 31.2649 36.9001 31.0514C36.8698 30.8382 36.7652 30.6426 36.6049 30.4989C36.4438 30.3555 36.2372 30.2736 36.0217 30.2677C35.8064 30.2625 35.5962 30.3334 35.4281 30.468L33.1035 32.3421L31.9474 31.577L27.8514 38.8359Z" fill="#022F45"/>
<path d="M9.2511 39.9427C9.44207 40.872 8.21884 41.4089 7.66658 40.6314L1.39258 31.8277L4.766 29.9805L9.71254 36.5424L8.69475 37.2311L9.2511 39.9427Z" fill="#FEB703"/>
<path d="M8.37274 41.1407C8.21191 41.1416 8.05334 41.1026 7.9113 41.0272C7.76868 40.9523 7.64672 40.8434 7.55621 40.7102L1.19238 31.7826L4.80527 29.8042L9.91078 36.5778L8.84758 37.2934L9.38432 39.9161C9.43426 40.1452 9.40248 40.3844 9.2945 40.5924C9.1866 40.8004 9.00903 40.9638 8.79284 41.054C8.66022 41.1114 8.51724 41.1409 8.37274 41.1407ZM1.59188 31.8735L7.77813 40.547C7.87679 40.6874 8.0208 40.7895 8.18589 40.8361C8.35141 40.8824 8.52778 40.8704 8.68549 40.8021C8.84288 40.7334 8.9719 40.6128 9.05091 40.4603C9.12977 40.3078 9.15384 40.1328 9.11905 39.9647L8.54511 37.1643L9.51855 36.5045L4.73198 30.1501L1.59188 31.8735Z" fill="#022F45"/>
<path d="M27.7169 39.0725L27.5951 38.993L22.2852 35.506L16.8008 31.9034L9.68341 36.7275L4.56348 29.9363L14.3275 24.5918C14.3946 24.3388 14.4617 24.0858 14.5268 23.8339C14.6011 23.553 14.6754 23.2732 14.7487 22.9913L14.7745 22.888H14.8777L17.7443 22.8457L20.7141 22.8003H20.7843L21.8495 24.2242C22.2004 24.69 22.628 25.0926 23.1141 25.4147L32.073 31.3406L27.7169 39.0725ZM16.8008 31.5771L16.8762 31.6267L22.4328 35.2788L27.6178 38.6863L31.7076 31.4284L22.9685 25.646C22.4564 25.3081 22.006 24.8848 21.6369 24.3946L20.6532 23.0822L17.7515 23.1245L14.9882 23.1658L14.7931 23.9093C14.7208 24.1798 14.6496 24.4507 14.5794 24.7219L14.5639 24.7776L4.97119 30.0303L9.74641 36.363L16.8008 31.5771Z" fill="#022F45"/>
<path d="M16.7108 31.8477C15.9789 31.2684 14.6814 29.989 14.2231 27.9353C13.9849 26.8478 14.0153 25.7186 14.3119 24.6455L14.5751 24.7178C14.289 25.7477 14.2582 26.8319 14.4853 27.8764C14.9261 29.8486 16.173 31.0774 16.877 31.6319L16.7108 31.8477Z" fill="#022F45"/>
<path d="M20.7403 13.7817H6.33105V23.5725H20.7403V13.7817Z" fill="#FEB703"/>
<path d="M20.8761 23.7079H6.19434V13.6455H20.875L20.8761 23.7079ZM6.46787 23.4394H20.6097V13.9181H6.46787V23.4394Z" fill="#022F45"/>
<path d="M20.7402 13.7827L27.8081 14.0543V23.5725H20.7402V13.7827Z" fill="#FEB703"/>
<path d="M27.9448 23.7077H20.6045V13.6401L27.9448 13.9231V23.7077ZM20.876 23.4392H27.6703V14.1843L20.876 13.9231V23.4392Z" fill="#022F45"/>
<path d="M6.3311 13.7827L4.70117 17.3172H19.1042L20.7403 13.7827H6.3311Z" fill="#FEB703"/>
<path d="M19.1942 17.4587H4.48047L6.2415 13.6382H20.9624L19.1942 17.4587ZM4.92225 17.1758H19.0135L20.5196 13.9232H6.42315L4.92225 17.1758Z" fill="#022F45"/>
<path d="M27.8081 14.0543L20.7402 13.7827L22.3712 17.3172H29.4401L27.8081 14.0543Z" fill="#FEB703"/>
<path d="M29.6596 17.4525H22.2841L20.5293 13.6382L27.8985 13.9211L29.6596 17.4525ZM22.4586 17.184H29.2198L27.7231 14.1896L20.9566 13.9293L22.4586 17.184Z" fill="#022F45"/>
<path d="M23.9087 1.54354L12.0234 8.29961C11.9688 8.33428 11.9296 8.38865 11.9139 8.45142C11.8981 8.51426 11.907 8.58077 11.9387 8.63726C11.9709 8.69368 12.0233 8.73577 12.0853 8.75499C12.1474 8.77343 12.2142 8.76751 12.2721 8.73845L24.1627 1.98342C24.2205 1.94972 24.263 1.89496 24.2814 1.8306C24.2987 1.76581 24.2898 1.6968 24.2566 1.63853C24.2236 1.58047 24.1691 1.5378 24.1048 1.5198C24.0402 1.50206 23.9712 1.51059 23.9128 1.54354H23.9087Z" fill="#022F45"/>
<path d="M75.3398 31.8133L69.3847 41.2551L69.2681 41.1797L67.5607 40.0614L65.9401 38.9979L65.8369 38.9277L60.6333 35.5109L55.1469 31.9083L48.2556 36.5745L48.1658 36.6312L48.0254 36.7262L47.1913 37.291L47.7271 39.9148C47.7774 40.1437 47.746 40.383 47.6383 40.5911C47.5301 40.7989 47.3526 40.9622 47.1366 41.0527C47.0037 41.1107 46.8604 41.1412 46.7155 41.1425C46.5547 41.1425 46.3964 41.1036 46.254 41.029C46.1116 40.9538 45.9897 40.845 45.8989 40.7119L39.5361 31.7834L42.9054 29.9381L42.9519 29.9134L43.1469 29.8101L52.6715 24.5967C52.7376 24.3437 52.8047 24.0907 52.8708 23.8388C52.8811 23.7975 52.8914 23.7551 52.9038 23.7138H44.5426V17.4637H42.8259L44.5426 13.7465V13.6546H44.5859V13.6484H51.4917C49.7709 12.1605 49.071 10.1955 48.7985 9.08032C48.5642 8.14275 48.1472 5.63051 49.6605 3.44664C49.9777 2.98341 50.3527 2.56253 50.7763 2.19415V2.18381H50.7856C51.3048 1.73406 51.9025 1.38401 52.5487 1.15124C53.1498 0.942182 53.7807 0.831658 54.4171 0.823929C56.8367 0.803278 58.6782 2.39755 59.4235 3.16165L62.2529 1.55189C62.2814 1.53533 62.313 1.52478 62.3458 1.52091C62.3804 1.51641 62.4154 1.51887 62.449 1.52815C62.4809 1.53704 62.5107 1.55212 62.5368 1.57254C62.5632 1.59272 62.5853 1.618 62.6018 1.64688C62.6182 1.67585 62.6288 1.7078 62.6328 1.74086C62.6373 1.77542 62.6348 1.81053 62.6255 1.84412C62.6167 1.87601 62.6016 1.90582 62.5812 1.93187C62.5607 1.95803 62.5355 1.98012 62.5068 1.99694L59.7868 3.54578C60.2917 4.11686 60.659 4.79614 60.8604 5.53141C61.0377 6.18397 61.0826 6.86541 60.9925 7.53561C61.5727 7.24855 62.1652 7.20622 62.609 7.46333C62.7609 7.5519 62.8928 7.67109 62.9961 7.81336C63.0993 7.95551 63.1718 8.11764 63.2088 8.28938C63.3884 9.13299 62.5956 10.148 61.3156 10.7386C61.3156 11.1248 61.2733 12.4042 60.7303 13.5854C60.7087 13.6319 60.6859 13.6752 60.6622 13.7238L66.288 13.9396V14.0428L68.0036 17.4741H66.2715V23.7293H59.791L60.1781 24.2456C60.5287 24.711 60.9564 25.113 61.4426 25.4341L70.1744 31.2103L70.3003 31.2939L70.4036 31.361L71.4111 32.027L73.5788 30.2789C73.7969 30.1036 74.0702 30.0114 74.3499 30.0187C74.63 30.026 74.8985 30.1325 75.1076 30.3192C75.3164 30.5054 75.4525 30.7597 75.4915 31.0368C75.531 31.314 75.4706 31.5962 75.3212 31.8329L75.3398 31.8133Z" fill="white"/>
<path d="M69.4714 41.657L69.1143 41.4216L67.3687 40.2755L65.7853 39.2346L65.682 39.1665L58.577 34.5003L55.152 32.2514L48.1214 37.0167L47.5196 37.4235L48.0181 39.8583C48.0832 40.1518 48.043 40.4588 47.9046 40.7257C47.7663 40.9929 47.5382 41.2028 47.2605 41.3184C47.0909 41.3913 46.9083 41.4293 46.7237 41.4299C46.5169 41.4306 46.3131 41.3806 46.1301 41.2843C45.9468 41.1885 45.7897 41.0492 45.6729 40.8785L39.1201 31.6886L52.4362 24.4008L52.5394 24.0033H44.2607V17.7531H42.3831L44.2607 13.6817V13.3637H44.4218V13.3575H50.7773C49.3642 11.882 48.7655 10.1256 48.527 9.14671L48.4579 8.86379H48.4641C48.2215 7.70938 47.9934 5.36132 49.4344 3.2807C49.7503 2.82049 50.1205 2.39995 50.5368 2.02819L50.5988 1.84441L50.7216 1.87227C51.2421 1.44499 51.8318 1.10976 52.4651 0.881019C53.0981 0.660968 53.7625 0.544504 54.4326 0.536133H54.48C56.846 0.536133 58.6751 2.01167 59.4865 2.80778L62.1228 1.30849C62.1847 1.27349 62.2527 1.25071 62.3231 1.24138C62.3923 1.23373 62.4623 1.23897 62.5295 1.25686C62.5981 1.27548 62.6623 1.30742 62.7184 1.35084C62.7744 1.39483 62.8213 1.44915 62.8568 1.51087C62.8917 1.57272 62.9145 1.64075 62.9239 1.71121C62.9327 1.7821 62.9274 1.85401 62.9084 1.92286C62.8895 1.99132 62.8576 2.05549 62.8144 2.11183C62.7707 2.16801 62.7163 2.21504 62.6544 2.2502L60.2338 3.62559C60.6528 4.16666 60.9615 4.78482 61.1422 5.44496C61.2869 5.97993 61.3475 6.53415 61.3218 7.08776C61.8493 6.93391 62.354 6.97212 62.7515 7.20445C62.9384 7.31317 63.1005 7.45983 63.2273 7.63502C63.3546 7.80989 63.4442 8.00926 63.4906 8.22051C63.6908 9.16324 62.9187 10.2515 61.6005 10.9124C61.5768 11.7778 61.4075 12.633 61.0999 13.4422L66.5708 13.6487V13.9585L68.4691 17.75H66.5811V24.0053H60.3876L60.4299 24.0611C60.76 24.5002 61.163 24.8795 61.6212 25.1824L70.5811 31.1084L71.4121 31.6587L73.4198 30.0427C73.6881 29.8175 74.0294 29.698 74.3795 29.7067C74.7296 29.7155 75.0645 29.8519 75.3212 30.0902C75.5882 30.3176 75.7629 30.6348 75.8124 30.9821C75.8618 31.3294 75.7826 31.6828 75.5896 31.9757L69.4714 41.657ZM55.1407 31.5565L55.3007 31.6598L58.8877 34.014L66.097 38.7483L67.6825 39.7891L69.297 40.8496L75.0951 31.6535C75.2087 31.4744 75.2548 31.2606 75.2252 31.0505C75.1959 30.8408 75.0931 30.6483 74.9351 30.5074C74.7771 30.3663 74.574 30.2861 74.3622 30.2813C74.1505 30.2761 73.9438 30.3464 73.779 30.4795L71.442 32.3567L70.0319 31.4274L61.3001 25.6512C60.786 25.3118 60.3342 24.8864 59.9644 24.3936L59.2315 23.4095H66V17.1553H67.536L66.0588 14.2032L60.2059 13.9781L60.4186 13.5527C60.4351 13.5196 60.4527 13.4845 60.4681 13.4494C60.9905 12.3136 61.0286 11.0745 61.0286 10.7224V10.5355L61.1969 10.4591C62.3499 9.93043 63.0787 9.03622 62.929 8.33201C62.8998 8.19973 62.8436 8.07492 62.7639 7.96544C62.6844 7.8563 62.5832 7.7649 62.4666 7.69699C62.1208 7.49047 61.6304 7.52558 61.1246 7.77753L60.6374 8.0181L60.7097 7.48221C60.7951 6.85045 60.7533 6.20798 60.5868 5.59261C60.3959 4.89958 60.0488 4.25954 59.5721 3.72161L59.3853 3.5151H59.3791L59.2222 3.35401C58.5636 2.67561 56.7861 1.10301 54.4738 1.10301H54.4315C53.8276 1.11005 53.2287 1.21465 52.6581 1.41278C52.0451 1.6339 51.4776 1.9653 50.9838 2.39062L50.9425 2.4278C50.5516 2.77494 50.2049 3.16889 49.9103 3.60078C48.4713 5.6783 48.8584 8.0718 49.0917 9.00007L49.1588 9.26855C49.454 10.3414 50.1415 12.0875 51.6909 13.4236L52.2782 13.9316H44.78L43.2801 17.1666H44.8336V23.4157H53.2888L53.1908 23.7833C53.1804 23.8174 53.1722 23.8525 53.1629 23.8866L53.0948 24.1458C53.0493 24.3172 53.0029 24.4896 52.9585 24.6621L52.9275 24.7829L52.8181 24.8427L43.054 30.1883L39.9676 31.8776L46.1425 40.5419C46.2057 40.6375 46.292 40.7157 46.3934 40.769C46.4948 40.8237 46.6085 40.8517 46.7237 40.8506C46.8302 40.8512 46.9357 40.8294 47.0334 40.7866C47.189 40.7237 47.3171 40.6072 47.3946 40.4582C47.4719 40.3089 47.4939 40.1369 47.4566 39.9729L46.8806 37.1602L48.0997 36.3342L55.1407 31.5565Z" fill="white"/>
<path d="M69.6352 42.3868L68.8301 41.8612L67.0825 40.7141C66.5547 40.3699 66.0268 40.0233 65.499 39.6743L65.3958 39.6051L57.9873 34.7396L55.1548 32.881L48.28 37.54L48.1014 37.6608L48.5298 39.7517C48.6202 40.1631 48.5634 40.5932 48.3693 40.967C48.1752 41.3408 47.8561 41.6347 47.4676 41.7972C47.2321 41.8998 46.9781 41.9529 46.7213 41.9532C46.4307 41.9524 46.1446 41.8815 45.8872 41.7466C45.63 41.6124 45.409 41.4179 45.2431 41.1798L38.3477 31.5046L51.1104 24.5172H43.7319V18.2681H41.558L43.7319 13.5566V12.8338H44.1056V12.8286H49.6488C48.8795 11.7575 48.3233 10.5485 48.0106 9.26728L47.8155 8.46187L47.8526 8.4536C47.6462 7.09165 47.6369 4.9336 48.9964 2.97276C49.3092 2.51659 49.6717 2.09651 50.0772 1.72025L50.2444 1.21947L50.586 1.29484C51.1024 0.904074 51.6753 0.594504 52.2851 0.376876C52.9717 0.136976 53.6926 0.00971537 54.4198 0H54.4735C56.7548 0 58.5499 1.23908 59.5563 2.14567L61.8582 0.837422C61.9801 0.764754 62.1152 0.71701 62.2557 0.696982C62.3963 0.677296 62.5394 0.685718 62.6768 0.721763C62.814 0.757588 62.9425 0.820816 63.0546 0.907629C63.1678 0.994146 63.2622 1.10266 63.3323 1.22668C63.4025 1.35002 63.4471 1.48631 63.4634 1.62732C63.4801 1.76828 63.4685 1.91115 63.4293 2.04759C63.3895 2.18412 63.3232 2.31146 63.2342 2.4224C63.1447 2.53284 63.0342 2.62445 62.9091 2.69191L60.9891 3.78331C61.4913 4.59386 61.7849 5.51621 61.8438 6.46798C62.2547 6.44654 62.6632 6.54254 63.0216 6.74473C63.2716 6.89092 63.4884 7.08746 63.6585 7.32192C63.8287 7.55638 63.9486 7.82358 64.0105 8.10668C64.2469 9.21462 63.4944 10.4413 62.1173 11.2292C62.0796 11.8078 61.9827 12.3812 61.8283 12.9401L67.1072 13.1466V13.8364L69.3256 18.2764H67.1072V24.5317H61.6156C61.7116 24.6071 61.8097 24.6783 61.9129 24.7454L70.8729 30.6734L71.3839 31.0121L73.0933 29.6357C73.9975 28.9129 75.0597 29.1576 75.6739 29.6997C76.033 30.0104 76.2672 30.4409 76.3331 30.9113C76.3989 31.3816 76.292 31.8599 76.0321 32.2573L69.6352 42.3868ZM40.7322 32.056L46.5644 40.2381C46.5797 40.2656 46.6021 40.2884 46.6294 40.3042C46.6562 40.3202 46.687 40.3284 46.7182 40.3279C46.7512 40.3277 46.7838 40.321 46.8142 40.3083C46.8591 40.2926 46.8961 40.26 46.9174 40.2174C46.9398 40.1752 46.9446 40.1258 46.9308 40.0801L46.2847 36.9235L47.7959 35.9013L55.1352 30.9264L55.5894 31.2237L59.1713 33.579L66.3805 38.3123L67.7927 39.2416L69.1346 40.1224L74.6499 31.3807C74.6964 31.307 74.7147 31.219 74.7015 31.1329C74.6898 31.0463 74.6473 30.9667 74.5818 30.9088C74.5168 30.8507 74.4335 30.8175 74.3464 30.8149C74.2589 30.8125 74.1734 30.841 74.1049 30.8954L71.4706 33.0163L69.7405 31.8722L61.0087 26.095C60.4449 25.7231 59.9491 25.2572 59.5429 24.7176L58.1814 22.894H65.4732V16.6398H66.685L65.723 14.7161L59.3685 14.4714L59.9475 13.3087C59.961 13.2829 59.9744 13.2581 59.9857 13.2313C60.4647 12.1884 60.5019 11.0443 60.5019 10.7191V10.1956L60.9777 9.97767C61.9707 9.52334 62.4972 8.8243 62.4136 8.43709C62.4001 8.37711 62.3744 8.32055 62.3382 8.27086C62.302 8.22081 62.256 8.17863 62.203 8.14693C62.0162 8.04368 61.6869 8.07674 61.3524 8.24402L59.9816 8.92239L60.1881 7.40246C60.2641 6.84071 60.2265 6.26942 60.0776 5.72247C59.9085 5.10659 59.6002 4.53782 59.1764 4.06006L59.1176 3.99499L58.8441 3.71207C58.234 3.08633 56.5855 1.62009 54.4704 1.62009H54.4312C53.8863 1.62706 53.3461 1.72153 52.8312 1.89991C52.2786 2.10049 51.7669 2.39961 51.321 2.78276L51.2797 2.81994C50.9213 3.13699 50.6037 3.49735 50.3342 3.89277C49.016 5.79475 49.3762 8.0065 49.593 8.86766L49.657 9.12581C49.9089 10.0345 50.5509 11.7423 52.025 13.0176L53.6766 14.4487H45.1089L44.0973 16.6398H45.3566V22.894H53.9749L53.6921 23.9266L53.6673 24.0216L53.5982 24.2828L53.4629 24.7991L53.3731 25.1388L53.0635 25.3072L40.7322 32.056ZM59.8133 3.20406L59.836 3.22884L62.3878 1.77808C62.3895 1.77851 62.3912 1.77851 62.3929 1.77808C62.3936 1.77607 62.3936 1.77388 62.3929 1.77187C62.3934 1.76984 62.3934 1.76773 62.3929 1.7657C62.3929 1.7657 62.3929 1.76569 62.3929 1.7595V1.75433H62.3868C62.3858 1.75387 62.3847 1.75362 62.3837 1.75362C62.3826 1.75362 62.3815 1.75387 62.3806 1.75433C62.3796 1.75387 62.3785 1.75362 62.3775 1.75362C62.3764 1.75362 62.3753 1.75387 62.3744 1.75433L59.8133 3.20406Z" fill="white"/>
<path d="M57.0845 15.7197C56.7995 15.719 56.5148 15.7018 56.2319 15.6681C54.7838 15.4901 53.3973 14.9767 52.1823 14.1688C49.9537 12.653 49.1083 10.3235 48.8027 9.07205L49.0959 8.99975C49.3922 10.211 50.2076 12.4609 52.3516 13.9189C54.5617 15.4223 58.1229 16.0574 59.6982 14.5632C59.8151 14.4521 59.9212 14.33 60.015 14.1987C60.1903 13.9626 60.3401 13.7085 60.462 13.4408C61.0452 12.1728 61.0236 10.782 61.0195 10.6271V10.5238L61.1082 10.4836C62.3118 9.96108 63.0695 9.05242 62.9188 8.33169C62.8889 8.20223 62.8335 8.08006 62.7557 7.97236C62.6772 7.86446 62.5774 7.77378 62.4625 7.70595C61.8659 7.36107 60.9142 7.70596 60.1916 8.52375L59.9645 8.32445C60.7779 7.39514 61.8907 7.0286 62.6112 7.44473C62.7626 7.5336 62.894 7.65275 62.9972 7.79476C63.1009 7.93674 63.1737 8.09891 63.2109 8.27078C63.3895 9.11439 62.5978 10.1294 61.3167 10.72C61.3167 11.1062 61.2744 12.3866 60.7314 13.5668C60.6022 13.8529 60.4427 14.1243 60.2556 14.3763C60.1496 14.5229 60.0297 14.6588 59.8974 14.7821C59.2522 15.3975 58.2706 15.7197 57.0845 15.7197Z" fill="#022F45"/>
<path d="M58.9591 11.9931C58.7584 12.2293 58.5081 12.4184 58.226 12.5469C57.9439 12.6754 57.6371 12.7401 57.3271 12.7365C56.7856 12.7376 56.2627 12.5391 55.8583 12.1789C55.5722 11.9305 55.3654 11.6034 55.2637 11.2383C55.8004 11.7411 56.3878 12.1149 57.1062 12.2264C57.7328 12.3297 58.3583 12.2016 58.9591 11.9931Z" fill="#022F45"/>
<path d="M55.0621 12.492C54.7276 12.1347 54.7793 11.509 55.1075 11.1497C55.4358 10.7903 56.0365 10.6406 56.4381 10.9277C56.2281 10.9305 56.0207 10.9736 55.827 11.0547C55.2562 11.2891 54.9867 11.8828 55.0621 12.492Z" fill="#022F45"/>
<path d="M59.0205 6.91211C59.2641 7.59877 58.7005 8.38662 57.98 8.46819C57.2646 8.58178 56.509 7.97773 56.5431 7.2632C56.8734 7.73818 57.3689 8.04071 57.915 7.97462C58.461 7.90854 58.8461 7.45937 59.0205 6.91211Z" fill="#022F45"/>
<path d="M57.249 6.23663C57.5061 5.424 58.7179 5.28461 59.1339 6.03632C58.9732 5.96896 58.8062 5.91777 58.6353 5.8835C58.1326 5.78128 57.6702 5.95061 57.249 6.23663Z" fill="#022F45"/>
<path d="M48.8947 9.42103L48.842 9.23516C48.6273 8.46383 48.0493 5.76575 49.6606 3.43938C50.4296 2.32834 51.402 1.55702 52.5509 1.14399C53.1516 0.934598 53.7822 0.823698 54.4182 0.815616C56.9142 0.794965 58.7991 2.49251 59.4887 3.22357L59.6218 3.36401L48.8947 9.42103ZM54.4688 1.11714H54.4193C53.8167 1.12434 53.2192 1.22894 52.65 1.42691C51.56 1.81825 50.6361 2.55343 49.9052 3.60975C48.4745 5.66662 48.8534 8.04979 49.0794 8.96671L59.1326 3.2876C58.3862 2.53589 56.6778 1.11301 54.4699 1.11301L54.4688 1.11714Z" fill="#022F45"/>
<path d="M56.7657 4.95198C55.7486 3.33497 54.2088 2.11499 52.4023 1.49495L52.5056 1.20996C54.376 1.85178 55.9709 3.11382 57.0258 4.78678L56.7657 4.95198Z" fill="#022F45"/>
<path d="M51.487 7.8774C50.6271 6.10548 50.3805 4.09785 50.7861 2.17041L51.0813 2.23134C50.6897 4.09358 50.9279 6.03319 51.7584 7.74523L51.487 7.8774Z" fill="#022F45"/>
<path d="M60.9461 7.79476L60.6509 7.73796C60.8046 6.94825 60.7531 6.1323 60.5012 5.36823C60.2493 4.60407 59.8054 3.91747 59.2119 3.37434L59.4184 3.15234C60.049 3.7309 60.5209 4.46144 60.7892 5.27427C61.0564 6.08714 61.1104 6.95501 60.9461 7.79476Z" fill="#022F45"/>
<path d="M51.8915 7.60076C52.6905 7.57597 53.3109 8.25436 53.252 8.96167C53.1973 9.61115 52.5821 10.1522 51.8543 10.0975C51.938 10.1925 52.3633 10.6912 52.2951 11.3851C52.2301 12.0583 51.7294 12.6438 51.0265 12.8668C50.6807 12.4633 50.3588 12.0399 50.0623 11.5988C49.5834 10.8884 49.5462 10.6881 49.5793 10.5136C49.6453 10.1708 49.9364 10.1863 50.4205 9.65659C50.8334 9.20948 50.786 9.01639 51.3289 8.2812C51.5043 8.04459 51.6921 7.81746 51.8915 7.60076Z" fill="#022F45"/>
<path d="M50.6905 12.1504L49.0152 9.61954L48.9512 9.19723L51.3388 7.87451L51.5246 8.72431L50.6905 12.1504Z" fill="#022F45"/>
<path d="M75.2255 31.74L69.3417 41.0651L66.0137 38.8792L70.2366 31.3848L71.432 32.1768L73.6823 30.3657C74.6051 29.6222 75.8562 30.7405 75.2255 31.74Z" fill="#FEB703"/>
<path d="M69.3837 41.2552L69.2681 41.1788L67.5608 40.0616L65.9401 38.998L65.8369 38.9278L70.1961 31.1959L71.4296 32.0127L73.5974 30.2636C73.8158 30.0878 74.0893 29.9949 74.3695 30.0013C74.6494 30.0087 74.9178 30.1148 75.1272 30.3007C75.3373 30.4881 75.4735 30.7445 75.5112 31.0235C75.5503 31.3008 75.4896 31.583 75.3398 31.8196L69.3837 41.2552ZM66.1951 38.8359L67.7094 39.8303L69.3012 40.8752L75.1117 31.6647C75.2271 31.4825 75.274 31.265 75.2438 31.0514C75.213 30.8382 75.1081 30.6426 74.9476 30.499C74.7868 30.3557 74.5806 30.2738 74.3654 30.2677C74.1498 30.2626 73.9393 30.3335 73.7708 30.468L71.4462 32.3421L70.29 31.577L66.1951 38.8359Z" fill="#022F45"/>
<path d="M47.5949 39.9427C47.7869 40.872 46.5626 41.4089 46.0114 40.6314L39.7363 31.8277L43.1097 29.9805L48.0563 36.5424L47.0395 37.2311L47.5949 39.9427Z" fill="#FEB703"/>
<path d="M46.7164 41.1407C46.5557 41.1411 46.3972 41.1021 46.255 41.0272C46.1126 40.952 45.9907 40.8432 45.8999 40.7102L39.5371 31.7826L43.15 29.8042L48.2534 36.5747L47.1923 37.2903L47.7291 39.913C47.7798 40.1419 47.7483 40.3813 47.6403 40.5894C47.5327 40.7976 47.355 40.961 47.1386 41.0509C47.0056 41.1097 46.8619 41.1403 46.7164 41.1407ZM39.9356 31.8735L46.1219 40.547C46.222 40.6882 46.3679 40.7903 46.5348 40.8361C46.6999 40.8824 46.876 40.8704 47.0333 40.8021C47.1911 40.734 47.3203 40.6132 47.3987 40.4603C47.4781 40.3079 47.5022 40.1328 47.4669 39.9647L46.8919 37.1643L47.8663 36.5045L43.0767 30.1501L39.9356 31.8735Z" fill="#022F45"/>
<path d="M66.0588 39.0725L65.937 38.993L60.6271 35.506L55.1396 31.9034L48.0232 36.7265L42.9043 29.9363L52.6725 24.5918C52.7413 24.3385 52.8077 24.0858 52.8717 23.8339C52.945 23.553 53.0194 23.2732 53.0926 22.9913L53.1195 22.888H53.2227L56.0882 22.8457L59.059 22.8003H59.1293L60.1945 24.2242C60.5454 24.69 60.973 25.0926 61.459 25.4147L70.419 31.3406L66.0588 39.0725ZM55.1375 31.5771L55.2129 31.6267L60.7757 35.2788L65.9607 38.6863L70.0515 31.4284L61.3032 25.646C60.7921 25.3075 60.3428 24.8839 59.9747 24.3935L58.9909 23.0811L56.0903 23.1235L53.327 23.1648L53.1308 23.9082L52.9171 24.7209L52.9027 24.7766L43.31 30.0293L48.0842 36.362L55.1375 31.5771Z" fill="#022F45"/>
<path d="M55.0574 31.8477C54.3245 31.2684 53.027 29.989 52.5697 27.9353C52.3313 26.8477 52.3621 25.7184 52.6595 24.6455L52.9206 24.7178C52.6345 25.7477 52.604 26.832 52.8319 27.8764C53.2716 29.8486 54.5186 31.0774 55.2226 31.6319L55.0574 31.8477Z" fill="#022F45"/>
<path d="M59.084 13.7817H44.6758V23.5725H59.084V13.7817Z" fill="#FEB703"/>
<path d="M59.2207 23.7079H44.54V13.6455H59.2207V23.7079ZM44.8115 23.4394H58.9534V13.9181H44.8115V23.4394Z" fill="#022F45"/>
<path d="M59.085 13.7827L66.1528 14.0543V23.5725H59.085V13.7827Z" fill="#FEB703"/>
<path d="M66.2885 23.7077H58.9492V13.6401L66.2885 13.9231V23.7077ZM59.2207 23.4392H66.015V14.1843L59.2207 13.9231V23.4392Z" fill="#022F45"/>
<path d="M44.6759 13.7827L43.0449 17.3172H57.4479L59.0851 13.7827H44.6759Z" fill="#FEB703"/>
<path d="M57.539 17.4587H42.8232L44.5853 13.6382H59.3062L57.539 17.4587ZM43.263 17.1758H57.3532L58.8593 13.9232H44.767L43.263 17.1758Z" fill="#022F45"/>
<path d="M66.1528 14.0543L59.085 13.7827L60.7159 17.3172H67.7838L66.1528 14.0543Z" fill="#FEB703"/>
<path d="M68.0036 17.4525H60.6292L58.8682 13.6382L66.2384 13.9211L68.0036 17.4525ZM60.8016 17.184H67.5639L66.0671 14.1896L59.3007 13.9293L60.8016 17.184Z" fill="#022F45"/>
<path d="M62.2537 1.54354L50.3642 8.29961C50.3093 8.33417 50.2698 8.38853 50.2538 8.45142C50.2379 8.51426 50.2468 8.58077 50.2785 8.63726C50.311 8.69347 50.3633 8.73549 50.4251 8.75499C50.4872 8.77343 50.554 8.76751 50.612 8.73845L62.5025 1.98342C62.5603 1.94994 62.6025 1.89504 62.6201 1.8306C62.6294 1.79864 62.6321 1.76514 62.628 1.73213C62.6239 1.69912 62.6131 1.66727 62.5964 1.63853C62.5635 1.58047 62.5089 1.5378 62.4447 1.5198C62.38 1.50206 62.311 1.51059 62.2527 1.54354H62.2537Z" fill="#022F45"/>
<path d="M94.7369 16.1956C94.6681 16.0983 94.5967 16.0418 94.5458 16.0418C94.4377 16.0563 94.3366 16.1049 94.2565 16.1811C93.8018 16.5337 93.3012 16.8186 92.7695 17.0275C92.2275 17.2335 91.6538 17.3368 91.0762 17.3324C90.4052 17.3434 89.7433 17.1731 89.156 16.8382C88.5983 16.5138 88.1398 16.0348 87.8321 15.4556C87.5068 14.8408 87.3421 14.1492 87.3543 13.4488C87.3415 12.7412 87.5061 12.0423 87.8321 11.4196C88.1403 10.8411 88.5988 10.3627 89.156 10.0383C89.7436 9.7045 90.4054 9.53462 91.0762 9.54543C92.1452 9.54543 93.2015 9.91739 94.2145 10.6534C94.295 10.7164 94.3889 10.7587 94.4884 10.7769C94.5636 10.7769 94.6413 10.7178 94.719 10.6021L95.9524 8.80288C96.0062 8.73256 96.0405 8.64854 96.0518 8.55973C96.0518 8.46774 95.9626 8.37444 95.8887 8.31135C95.2274 7.74213 94.479 7.29003 93.6742 6.97345C92.8494 6.65243 91.9743 6.49112 91.0927 6.49767C89.819 6.47885 88.5613 6.79164 87.4359 7.40713C86.3863 7.98699 85.5117 8.85364 84.9079 9.91211C84.2943 11.0056 83.9786 12.2499 83.9943 13.5132C83.978 14.7459 84.2862 15.96 84.8862 17.0262C85.4755 18.066 86.3342 18.9157 87.3658 19.4799C88.3129 19.983 89.3505 20.2792 90.4136 20.3499C91.4771 20.4209 92.5434 20.2643 93.5455 19.89C94.3576 19.5812 95.1152 19.1372 95.7881 18.5757C95.9435 18.4443 96.0238 18.3286 96.0238 18.234C96.0185 18.1515 95.9897 18.0724 95.941 18.0066L94.7369 16.1956Z" fill="white"/>
<path d="M109.152 6.76972H106.592C106.337 6.76972 106.241 6.8617 106.241 7.11141V11.2973C106.252 11.3651 106.247 11.4345 106.226 11.4997C106.205 11.5655 106.17 11.6253 106.123 11.6745C106.076 11.7234 106.018 11.7598 105.955 11.781C105.891 11.8024 105.823 11.8082 105.757 11.7981H101.814C101.744 11.805 101.674 11.7965 101.607 11.7731C101.541 11.7496 101.48 11.7119 101.429 11.6627C101.354 11.5574 101.318 11.4277 101.328 11.2973V7.11141C101.335 7.01808 101.31 6.92523 101.258 6.84856C101.177 6.79048 101.078 6.7644 100.979 6.77498H98.4193C98.3287 6.76867 98.2387 6.79463 98.1644 6.84856C98.1124 6.92523 98.0876 7.01808 98.0943 7.11141V19.7454C98.0879 19.8387 98.1126 19.9315 98.1644 20.0082C98.2385 20.0624 98.3288 20.0875 98.4193 20.0792H100.979C101.077 20.09 101.176 20.0649 101.258 20.0082C101.31 19.9315 101.335 19.8387 101.328 19.7454V15.3071C101.318 15.1764 101.354 15.0462 101.429 14.9405C101.48 14.8912 101.541 14.8536 101.607 14.83C101.674 14.8065 101.744 14.7984 101.814 14.8064H105.757C105.823 14.7958 105.891 14.8012 105.955 14.8222C106.018 14.8438 106.076 14.8808 106.123 14.9299C106.17 14.9784 106.206 15.0379 106.226 15.1034C106.247 15.1691 106.252 15.239 106.241 15.3071V19.7454C106.241 19.9951 106.337 20.0871 106.592 20.0871H109.152C109.406 20.0871 109.501 19.9964 109.501 19.7454V7.11141C109.494 6.8617 109.406 6.76972 109.152 6.76972Z" fill="white"/>
<path d="M115.586 6.84334C115.505 6.78548 115.406 6.75939 115.307 6.76973H112.747C112.656 6.76033 112.565 6.78662 112.492 6.84334C112.439 6.9194 112.414 7.01261 112.421 7.10619V19.7401C112.414 19.8337 112.439 19.9269 112.492 20.003C112.566 20.0584 112.657 20.0837 112.747 20.074H115.307C115.405 20.0846 115.504 20.0595 115.586 20.003C115.638 19.9262 115.663 19.8335 115.656 19.7401V7.10619C115.663 7.01286 115.638 6.92001 115.586 6.84334Z" fill="white"/>
<path d="M127.888 7.96042C126.934 7.17186 125.467 6.76969 123.536 6.76969H118.909C118.818 6.76118 118.728 6.78738 118.654 6.8433C118.602 6.91997 118.578 7.01282 118.584 7.10615V19.7401C118.578 19.8334 118.603 19.9262 118.654 20.003C118.728 20.0581 118.819 20.0833 118.909 20.0739H121.469C121.567 20.0846 121.666 20.0595 121.748 20.003C121.8 19.9262 121.825 19.8334 121.818 19.7401V16.925C121.811 16.8556 121.82 16.7856 121.842 16.7199C121.865 16.6551 121.901 16.5959 121.948 16.5464C122.051 16.469 122.177 16.4321 122.304 16.4426H123.441C125.362 16.4426 126.837 16.0234 127.83 15.1914C128.822 14.3595 129.308 13.1425 129.308 11.5418C129.308 9.94101 128.83 8.74109 127.888 7.96042ZM122.304 13.5959C122.234 13.6026 122.164 13.5945 122.097 13.5723C122.031 13.5487 121.971 13.5116 121.919 13.4632C121.844 13.3573 121.808 13.2272 121.818 13.0965V10.1237C121.808 9.99254 121.844 9.86196 121.919 9.75568C121.97 9.70682 122.031 9.66964 122.097 9.64659C122.164 9.62306 122.234 9.61499 122.304 9.62294H123.29C124.182 9.62294 124.828 9.76357 125.276 10.0527C125.504 10.1991 125.686 10.4098 125.801 10.6599C125.926 10.9459 125.986 11.2572 125.978 11.5707C125.971 12.9139 125.07 13.5959 123.295 13.5959H122.304Z" fill="white"/>
<path d="M146.377 19.9491C146.343 19.8864 146.303 19.8277 146.257 19.7743L144.058 17.4638L144.208 17.3324C144.563 17.0145 144.888 16.6624 145.179 16.281C145.487 15.8967 145.757 15.4815 145.984 15.0416C146.049 14.9311 146.087 14.8063 146.095 14.6776C146.095 14.5764 146.016 14.4726 145.857 14.3648L144.134 13.274C144.052 13.2086 143.953 13.1689 143.85 13.1596C143.74 13.1596 143.638 13.3081 143.575 13.4317C143.387 13.7773 143.176 14.1092 142.944 14.4253C142.73 14.7214 142.49 14.996 142.227 15.2454L142.099 15.3584L140.537 13.7458L140.783 13.6314C141.638 13.2542 142.312 12.7653 142.794 12.1779C143.266 11.587 143.516 10.8406 143.498 10.075C143.521 9.41096 143.346 8.75554 142.997 8.19697C142.649 7.63839 142.143 7.20351 141.547 6.95105C140.814 6.62748 140.022 6.46973 139.225 6.48843C138.297 6.48843 137.485 6.66454 136.813 7.01414C136.192 7.31932 135.665 7.79667 135.293 8.39279C134.957 8.95033 134.781 9.59381 134.783 10.2499C134.777 10.6834 134.855 11.1138 135.014 11.5155C135.183 11.9137 135.41 12.2832 135.686 12.6116L135.852 12.81L135.617 12.9086C134.88 13.194 134.231 13.6821 133.743 14.3201C133.302 14.9341 133.072 15.6815 133.087 16.4453C133.072 17.1659 133.248 17.8771 133.597 18.5021C133.964 19.1181 134.502 19.6069 135.141 19.9057C135.514 20.0877 135.907 20.2202 136.312 20.3C136.782 20.3897 137.259 20.4337 137.736 20.4314C139.134 20.4469 140.499 20.0001 141.632 19.1566L141.759 19.062L142.475 19.8019C142.557 19.8961 142.656 19.9733 142.766 20.0292C142.882 20.0674 143.003 20.083 143.125 20.0753H146.141C146.235 20.0753 146.396 20.0634 146.396 19.9898C146.39 19.9758 146.384 19.9622 146.377 19.9491ZM139.653 17.1602C139.424 17.3326 139.172 17.4694 138.905 17.5663C138.623 17.6613 138.327 17.7079 138.031 17.7043C137.723 17.7102 137.419 17.6341 137.148 17.4835C136.902 17.3472 136.697 17.144 136.555 16.8961C136.42 16.6496 136.35 16.3709 136.353 16.0878C136.346 15.7649 136.447 15.4494 136.637 15.1928C136.835 14.9339 137.094 14.7317 137.39 14.6053L137.501 14.5541L139.818 17.0327L139.653 17.1602ZM140.127 11.3551C139.826 11.674 139.451 11.9087 139.037 12.0372L138.938 12.0727L138.858 12.0018C138.251 11.459 137.943 10.8978 137.943 10.3353C137.94 10.1666 137.97 9.99899 138.031 9.84242C138.092 9.68555 138.183 9.54329 138.3 9.4245C138.428 9.29959 138.579 9.2026 138.744 9.13931C138.91 9.07654 139.086 9.04838 139.262 9.0565C139.667 9.0565 139.983 9.17741 140.201 9.41924C140.419 9.6636 140.536 9.98716 140.524 10.3195C140.525 10.704 140.383 11.0754 140.127 11.3551Z" fill="white"/>
<path d="M163.456 9.82666C162.888 8.84073 162.044 8.05534 161.035 7.574C159.972 7.04042 158.67 6.76969 157.162 6.76969H152.307C152.216 6.76215 152.126 6.78825 152.052 6.8433C152.001 6.92041 151.977 7.01304 151.983 7.10615V19.7401C151.977 19.8332 152.001 19.9257 152.052 20.003C152.125 20.0578 152.216 20.0831 152.307 20.0739H156.82C158.39 20.0739 159.75 19.79 160.863 19.2328C161.919 18.7237 162.803 17.8996 163.401 16.8671C163.984 15.8525 164.277 14.6329 164.277 13.2569C164.284 11.9544 164.005 10.7966 163.456 9.82666ZM159.876 16.1351C159.181 16.7922 158.155 17.1221 156.818 17.1221H155.701C155.631 17.1301 155.561 17.122 155.495 17.0984C155.428 17.0752 155.367 17.0376 155.316 16.9881C155.241 16.8822 155.205 16.7522 155.214 16.6214V10.2459C155.204 10.1152 155.24 9.98519 155.315 9.87922C155.366 9.82969 155.427 9.79206 155.493 9.76884C155.56 9.74533 155.631 9.73723 155.701 9.74516H156.895C157.752 9.74516 158.49 9.89237 159.086 10.1841C159.662 10.4502 160.143 10.8931 160.465 11.4524C160.782 12.0389 160.942 12.7024 160.926 13.3738C160.933 14.5409 160.576 15.4688 159.876 16.1298V16.1351Z" fill="white"/>
<path d="M178.7 19.7257L178.692 19.7126L172.682 7.37297C172.56 7.10252 172.4 6.85227 172.207 6.63042C172.158 6.57451 172.098 6.52975 172.031 6.499C171.964 6.46891 171.893 6.45281 171.821 6.45167C171.745 6.45125 171.671 6.46646 171.601 6.49636C171.532 6.5271 171.468 6.57177 171.415 6.62779C171.222 6.8496 171.061 7.09987 170.939 7.37037L164.93 19.7099C164.883 19.7893 164.856 19.8798 164.853 19.9728C164.853 20.003 164.853 20.0766 165.108 20.0766H167.706C167.847 20.0883 167.988 20.0639 168.117 20.0056C168.22 19.9232 168.297 19.8106 168.338 19.6823L168.984 18.2485C169.029 18.1403 169.098 18.0448 169.186 17.9698C169.282 17.9084 169.395 17.879 169.508 17.8857H174.007C174.121 17.8791 174.234 17.9085 174.332 17.9698C174.418 18.0445 174.486 18.1385 174.531 18.2445L175.192 19.6744C175.233 19.8047 175.31 19.92 175.412 20.0069C175.549 20.0668 175.699 20.0908 175.847 20.0766H178.539C178.794 20.0766 178.794 20.003 178.794 19.9728C178.782 19.8838 178.75 19.799 178.7 19.7257ZM173.022 15.2861C172.944 15.3285 172.856 15.3481 172.767 15.3426H170.72C170.346 15.3426 170.33 15.0719 170.33 15.018C170.33 14.9268 170.358 14.838 170.41 14.7644L171.747 11.8401L173.102 14.7696C173.144 14.8449 173.164 14.9303 173.162 15.0167C173.164 15.0697 173.152 15.1222 173.128 15.1692C173.103 15.2155 173.067 15.2545 173.023 15.2822L173.022 15.2861Z" fill="white"/>
<path d="M188.977 17.1498C188.902 17.0974 188.813 17.0725 188.722 17.0788H184.021C183.951 17.0855 183.881 17.077 183.814 17.0538C183.748 17.0308 183.687 16.9936 183.636 16.9447C183.561 16.8382 183.526 16.7078 183.535 16.5767V7.11408C183.543 7.02066 183.518 6.92746 183.465 6.85123C183.384 6.79337 183.285 6.76731 183.186 6.77765H180.626C180.534 6.7699 180.441 6.79592 180.365 6.85123C180.315 6.92884 180.291 7.02109 180.296 7.11408V19.7481C180.291 19.841 180.315 19.9332 180.365 20.0109C180.442 20.0649 180.534 20.09 180.626 20.0819H188.722C188.768 20.0944 188.817 20.0944 188.863 20.0819C188.908 20.0689 188.95 20.044 188.984 20.0096C189.019 19.9734 189.043 19.9279 189.054 19.8782C189.067 19.8309 189.067 19.7809 189.054 19.7336V17.406C189.056 17.3143 189.029 17.2242 188.977 17.1498Z" fill="white"/>
<path d="M199.809 17.3035C199.784 17.2759 199.71 17.2338 199.524 17.2338H194.803C194.733 17.2406 194.663 17.2321 194.596 17.2089C194.53 17.1863 194.469 17.1495 194.418 17.1011C194.343 16.9951 194.308 16.865 194.319 16.7344V15.3071C194.308 15.1765 194.343 15.0463 194.418 14.9404C194.469 14.8912 194.53 14.8536 194.596 14.83C194.663 14.8071 194.733 14.799 194.803 14.8064H198.88C198.926 14.8182 198.974 14.8182 199.02 14.8064C199.068 14.7945 199.112 14.7695 199.148 14.7341C199.182 14.6973 199.206 14.652 199.218 14.6027C199.231 14.5554 199.231 14.5054 199.218 14.4581V12.3251C199.227 12.2246 199.2 12.1241 199.143 12.0425C199.107 12.0132 199.067 11.9913 199.023 11.9781C198.979 11.965 198.933 11.961 198.888 11.9663H194.81C194.744 11.9741 194.677 11.9678 194.613 11.9479C194.548 11.9287 194.488 11.8961 194.436 11.8519C194.395 11.8014 194.363 11.7428 194.344 11.6798C194.325 11.6168 194.319 11.5507 194.326 11.4853V10.1184C194.315 9.9878 194.35 9.85738 194.426 9.75176C194.477 9.70289 194.538 9.66572 194.604 9.64266C194.67 9.61931 194.741 9.6108 194.81 9.6177H199.513C199.613 9.63127 199.713 9.60696 199.796 9.54936C199.85 9.46994 199.873 9.37313 199.861 9.2773V7.10749C199.861 6.85778 199.767 6.76577 199.513 6.76577H191.416C191.37 6.7526 191.322 6.7526 191.276 6.76577C191.23 6.77903 191.189 6.80389 191.155 6.83806C191.121 6.87463 191.096 6.92001 191.085 6.96948C191.072 7.01677 191.072 7.06674 191.085 7.11403V19.748C191.072 19.7953 191.072 19.8453 191.085 19.8926C191.097 19.9397 191.122 19.9827 191.155 20.0174C191.189 20.0516 191.23 20.0764 191.276 20.0897C191.322 20.1016 191.37 20.1016 191.416 20.0897H199.531C199.786 20.0897 199.88 19.999 199.88 19.748V17.5769C199.89 17.4798 199.865 17.3823 199.809 17.3035Z" fill="white"/>
<path d="M95.0083 29.0399C95.0083 27.9319 94.8006 27.0961 94.3903 26.5546C93.98 26.0131 93.4041 25.7568 92.6065 25.7568C91.7643 25.7568 91.0227 26.1314 90.3996 26.8727L90.2174 27.0895L90.0785 26.8398C89.8988 26.504 89.6347 26.2244 89.314 26.0302C88.9845 25.8607 88.6233 25.7665 88.2552 25.7542C87.8846 25.7438 87.5163 25.8169 87.176 25.9684C86.891 26.0973 86.6386 26.292 86.4382 26.5375L86.0878 26.9831V26.0696C86.0922 26.0237 86.0819 25.9775 86.0585 25.9382C86.0146 25.9149 85.965 25.9053 85.9158 25.9106H84.0301C83.9281 25.9106 83.9026 25.9343 83.9026 25.9369C83.8784 25.9759 83.8677 26.0222 83.8721 26.0683V32.6528C83.8706 32.6807 83.8736 32.7087 83.881 32.7356C83.9017 32.7375 83.9226 32.7375 83.9434 32.7356H86.0165C86.0374 32.7353 86.0583 32.7331 86.0789 32.729C86.0857 32.7024 86.0887 32.675 86.0878 32.6475V29.3842C86.0878 28.8427 86.1681 28.4419 86.335 28.1593C86.4266 28.0052 86.5572 27.8797 86.7128 27.7966C86.8684 27.7134 87.0431 27.6757 87.218 27.6875C87.391 27.6753 87.5638 27.7133 87.7169 27.7971C87.87 27.881 87.9973 28.0073 88.0844 28.1619C88.245 28.4432 88.324 28.8454 88.324 29.3842V32.6475C88.3221 32.6733 88.3269 32.6992 88.338 32.7224C88.338 32.7224 88.352 32.7356 88.4106 32.7356H90.4672C90.4892 32.737 90.5113 32.7339 90.5322 32.7264C90.5372 32.7004 90.5398 32.674 90.5398 32.6475V29.3842C90.5398 28.8427 90.6213 28.4419 90.7882 28.1593C90.8794 28.0051 91.0098 27.8795 91.1652 27.7964C91.3207 27.7132 91.4953 27.6755 91.67 27.6875C91.8428 27.6752 92.0155 27.7129 92.1686 27.7965C92.3218 27.8802 92.4492 28.0063 92.5364 28.1606C92.6983 28.4445 92.776 28.8441 92.776 29.3842V32.6475C92.7737 32.6732 92.7781 32.699 92.7887 32.7224C92.7887 32.7224 92.804 32.7356 92.8626 32.7356H94.9191C94.9464 32.737 94.9736 32.733 94.9994 32.7237V32.6475L95.0083 29.0399Z" fill="white"/>
<path d="M103.566 27.4627C103.411 27.1926 103.219 26.9466 102.997 26.732C102.77 26.5129 102.515 26.3259 102.239 26.176C101.624 25.87 100.951 25.711 100.268 25.7108C99.585 25.7107 98.9108 25.8697 98.2957 26.176C98.0212 26.3252 97.7675 26.5117 97.5413 26.7307C97.32 26.9448 97.1295 27.1904 96.9756 27.4601C96.6685 28.0317 96.5068 28.6742 96.5054 29.3276C96.5041 29.9813 96.6632 30.6247 96.9679 31.1978C97.2796 31.7402 97.7343 32.1801 98.2791 32.4661C98.8916 32.7802 99.5689 32.9363 100.253 32.9208C100.939 32.9352 101.618 32.7792 102.233 32.4661C102.784 32.1799 103.246 31.7395 103.566 31.1952C103.877 30.6255 104.04 29.9828 104.041 29.3289C104.041 28.6751 103.877 28.0323 103.566 27.4627ZM101.565 30.1635C101.434 30.4049 101.24 30.6038 101.006 30.7378C100.776 30.8718 100.517 30.9416 100.253 30.9402C99.9921 30.9429 99.7357 30.872 99.5112 30.7352C99.2901 30.5973 99.1088 30.4008 98.9862 30.1661C98.8537 29.9109 98.7861 29.6251 98.79 29.3355C98.7865 29.0449 98.8535 28.758 98.985 28.501C99.1086 28.259 99.2924 28.0553 99.5176 27.9109C99.7388 27.7711 99.9933 27.6974 100.253 27.698C100.522 27.6966 100.786 27.7702 101.017 27.9109C101.249 28.0502 101.439 28.252 101.568 28.4944C101.704 28.7509 101.773 29.0393 101.769 29.3316C101.774 29.623 101.703 29.9093 101.565 30.1635Z" fill="white"/>
<path d="M112.452 25.9027H110.286C110.236 25.8974 110.186 25.908 110.143 25.9329C110.09 25.9853 110.05 26.049 110.024 26.1195L108.613 28.9347L107.187 26.1301C107.157 26.0541 107.114 25.9846 107.059 25.925C107.012 25.9052 106.961 25.8975 106.91 25.9027H104.635C104.641 25.9179 104.648 25.9329 104.656 25.9474L108.188 32.5923C108.255 32.7208 108.337 32.8397 108.434 32.9458C108.53 33.0391 108.592 33.0391 108.689 32.9458C108.788 32.8387 108.874 32.719 108.944 32.5896L112.501 25.929L112.515 25.9079C112.495 25.9024 112.473 25.9006 112.452 25.9027Z" fill="white"/>
<path d="M115.786 25.9356C115.739 25.9076 115.684 25.896 115.63 25.9027H113.771C113.721 25.8975 113.67 25.9095 113.628 25.9369C113.604 25.9798 113.594 26.0296 113.6 26.0788V32.5555C113.6 32.6488 113.621 32.6869 113.634 32.6948C113.674 32.7236 113.722 32.7367 113.771 32.7316H115.63C115.685 32.7371 115.74 32.7247 115.788 32.6961C115.81 32.653 115.819 32.6041 115.814 32.5555V26.0788C115.819 26.0293 115.809 25.9793 115.786 25.9356ZM115.802 22.6342C115.702 22.443 115.552 22.2852 115.368 22.1794C115.166 22.0639 114.937 22.0058 114.706 22.0112C114.475 22.0051 114.246 22.0632 114.044 22.1794C113.862 22.2858 113.713 22.4435 113.615 22.6342C113.51 22.8416 113.457 23.073 113.461 23.307C113.458 23.5358 113.511 23.7617 113.614 23.9642C113.711 24.152 113.859 24.3068 114.039 24.4097C114.246 24.5177 114.474 24.5739 114.706 24.574C114.937 24.5739 115.166 24.5177 115.372 24.4097C115.558 24.3064 115.708 24.1474 115.804 23.9537C115.907 23.7511 115.96 23.5253 115.957 23.2966C115.957 23.0677 115.903 22.8422 115.8 22.6394L115.802 22.6342Z" fill="white"/>
<path d="M123.951 26.5507C123.742 26.2865 123.472 26.0815 123.165 25.9553C122.816 25.8157 122.444 25.7479 122.069 25.7555C121.727 25.7535 121.389 25.8274 121.077 25.9724C120.789 26.0995 120.534 26.2944 120.333 26.5415L119.981 26.987V26.067C119.984 26.0213 119.975 25.9755 119.953 25.9356C119.909 25.913 119.86 25.9039 119.811 25.9093H117.924C117.88 25.9055 117.836 25.9151 117.797 25.9369C117.775 25.9769 117.766 26.0227 117.77 26.0683V32.6528C117.769 32.6802 117.771 32.7076 117.778 32.7343C117.799 32.7385 117.82 32.7406 117.842 32.7408H119.912C119.933 32.7405 119.955 32.7383 119.976 32.7343C119.982 32.7076 119.985 32.6802 119.983 32.6528V29.3894C119.983 28.8545 120.074 28.4563 120.259 28.1724C120.457 27.8636 120.768 27.7072 121.189 27.7072C121.609 27.7072 121.918 27.861 122.113 28.1633C122.292 28.4432 122.379 28.8453 122.379 29.3868V32.6501C122.375 32.663 122.375 32.6767 122.379 32.6896C122.382 32.7028 122.388 32.715 122.397 32.725C122.406 32.7343 122.418 32.7403 122.431 32.7421C122.443 32.7466 122.457 32.7466 122.469 32.7421H124.527C124.548 32.7437 124.569 32.7406 124.588 32.7329C124.595 32.7077 124.598 32.6815 124.597 32.6554V29.0399C124.595 27.9254 124.378 27.0921 123.951 26.5507Z" fill="white"/>
<path d="M132.965 25.929C132.926 25.9072 132.881 25.8985 132.837 25.904H130.198C129.439 25.8849 128.684 26.0262 127.98 26.3193C127.413 26.5571 126.929 26.9662 126.591 27.493C126.261 28.0535 126.095 28.7008 126.113 29.3566C126.113 30.5026 126.468 31.3582 127.168 31.901C127.869 32.4438 128.901 32.7368 130.184 32.7368H130.469C130.512 32.7334 130.555 32.7401 130.596 32.7566C130.635 32.7724 130.67 32.7961 130.699 32.8262C130.729 32.856 130.752 32.8924 130.767 32.9327C130.782 32.9745 130.789 33.0194 130.786 33.0641C130.79 33.2367 130.754 33.4077 130.679 33.5622C130.606 33.7193 130.496 33.8549 130.359 33.9565C130.048 34.1779 129.674 34.2874 129.296 34.268C129.074 34.2708 128.853 34.2532 128.634 34.2154C128.436 34.1773 128.241 34.1287 128.048 34.0708L127.92 34.034C127.89 34.0251 127.859 34.0206 127.828 34.0209C127.81 34.0558 127.795 34.0923 127.784 34.13L127.374 35.4442C127.351 35.5149 127.335 35.5874 127.325 35.6611C127.325 35.7005 127.331 35.7334 127.403 35.7636C127.686 35.8973 127.986 35.9889 128.295 36.0356C128.68 36.1002 129.07 36.1314 129.461 36.129C130.607 36.129 131.499 35.8201 132.096 35.209C132.692 34.5978 132.988 33.6923 132.988 32.5161V26.0762C132.997 26.0259 132.989 25.9738 132.965 25.929ZM130.778 30.4671C130.782 30.5223 130.775 30.5777 130.758 30.6301C130.741 30.6827 130.714 30.7311 130.677 30.772C130.638 30.8098 130.591 30.8384 130.54 30.8562C130.489 30.8738 130.435 30.8805 130.382 30.8759H130.211C129.639 30.8759 129.192 30.7445 128.887 30.4961C128.727 30.3572 128.601 30.1824 128.516 29.9851C128.432 29.7878 128.393 29.5733 128.402 29.3579C128.392 29.1356 128.431 28.9139 128.515 28.7091C128.6 28.5043 128.728 28.3218 128.89 28.1751C129.215 27.8912 129.654 27.7611 130.23 27.7611H130.387C130.444 27.7556 130.501 27.7641 130.554 27.786C130.607 27.807 130.654 27.8403 130.693 27.8833C130.758 27.9685 130.79 28.0758 130.783 28.1843L130.778 30.4671Z" fill="white"/>
<path d="M143.929 30.383C143.879 30.3068 143.844 30.3068 143.828 30.3068C143.782 30.312 143.738 30.3302 143.701 30.3594C143.472 30.5343 143.219 30.6746 142.952 30.776C142.676 30.8824 142.384 30.9363 142.089 30.935C141.615 30.935 141.242 30.7786 140.986 30.4698C140.727 30.1518 140.591 29.7466 140.603 29.3316C140.592 28.9116 140.727 28.5013 140.986 28.1764C141.121 28.0154 141.29 27.8884 141.48 27.8048C141.67 27.7212 141.876 27.6834 142.083 27.6941C142.571 27.6941 143.119 27.8925 143.707 28.2829C143.75 28.3155 143.802 28.3342 143.855 28.3367C143.868 28.3367 143.897 28.3368 143.938 28.2632L144.776 26.853C144.797 26.8257 144.808 26.7916 144.806 26.757C144.805 26.7306 144.798 26.7049 144.785 26.6821C144.772 26.6593 144.753 26.641 144.73 26.6295C144.354 26.3415 143.939 26.1113 143.498 25.9461C143.013 25.784 142.506 25.7072 141.996 25.7187C141.332 25.7045 140.675 25.8612 140.085 26.1748C139.544 26.4655 139.094 26.9079 138.786 27.4509C138.467 28.027 138.304 28.6813 138.315 29.3448C138.303 30.0062 138.468 30.6581 138.792 31.2294C139.105 31.7658 139.56 32.1995 140.103 32.4806C140.698 32.7852 141.356 32.9385 142.02 32.9275C142.522 32.9376 143.022 32.8608 143.5 32.7001C143.937 32.5342 144.35 32.3064 144.727 32.0232L144.742 32.0127C144.757 32.001 144.769 31.9856 144.776 31.968C144.785 31.9506 144.788 31.931 144.786 31.9115C144.785 31.8646 144.771 31.819 144.746 31.7801L143.929 30.383Z" fill="white"/>
<path d="M152.758 27.4627C152.603 27.1921 152.412 26.9457 152.189 26.7307C151.963 26.5113 151.708 26.3247 151.433 26.176C150.817 25.8698 150.143 25.7108 149.46 25.7108C148.777 25.7107 148.103 25.8697 147.488 26.176C147.213 26.3244 146.959 26.511 146.733 26.7307C146.513 26.9449 146.322 27.1905 146.169 27.4601C145.862 28.0322 145.701 28.6751 145.7 29.3289C145.699 29.9822 145.858 30.6251 146.163 31.1978C146.473 31.7404 146.928 32.1804 147.472 32.4661C148.09 32.7686 148.765 32.9257 149.449 32.9261C150.132 32.9259 150.807 32.7688 151.425 32.4661C151.976 32.1803 152.438 31.7398 152.758 31.1952C153.07 30.6259 153.234 29.983 153.234 29.3289C153.234 28.6749 153.07 28.0319 152.758 27.4627ZM150.76 30.1635C150.629 30.4043 150.435 30.603 150.202 30.7378C149.971 30.8718 149.71 30.9416 149.445 30.9402C149.185 30.9429 148.929 30.872 148.706 30.7352C148.484 30.5981 148.303 30.4014 148.181 30.1661C148.048 29.9109 147.981 29.6251 147.985 29.3355C147.982 29.0456 148.048 28.7594 148.178 28.5023C148.301 28.2594 148.485 28.0551 148.711 27.9109C148.932 27.7713 149.186 27.6976 149.445 27.698C149.714 27.6967 149.978 27.7702 150.209 27.9109C150.441 28.0505 150.632 28.2522 150.761 28.4944C150.897 28.751 150.967 29.0392 150.964 29.3316C150.967 29.6229 150.897 29.9088 150.76 30.1635Z" fill="white"/>
<path d="M165.944 29.0398C165.944 27.9319 165.735 27.096 165.326 26.5546C164.917 26.0131 164.339 25.7568 163.542 25.7568C162.7 25.7568 161.959 26.1314 161.335 26.8726L161.152 27.0987L161.012 26.849C160.833 26.5128 160.568 26.233 160.247 26.0394C159.915 25.87 159.551 25.7772 159.181 25.7673C158.811 25.7571 158.443 25.8302 158.103 25.9815C157.817 26.11 157.564 26.3048 157.364 26.5506L157.013 26.9961V26.0762C157.018 26.0302 157.008 25.9841 156.984 25.9447C156.984 25.9447 156.955 25.9171 156.841 25.9171H154.958C154.858 25.9171 154.831 25.9408 154.831 25.9434C154.807 25.9827 154.796 26.0288 154.8 26.0748V32.6593C154.799 32.6872 154.802 32.715 154.809 32.7421C154.831 32.744 154.852 32.744 154.874 32.7421H156.945C156.966 32.7419 156.987 32.7397 157.007 32.7355C157.014 32.709 157.018 32.6816 157.017 32.654V29.3907C157.017 28.8505 157.098 28.4484 157.263 28.1658C157.355 28.0118 157.485 27.8864 157.641 27.8033C157.797 27.7202 157.971 27.6824 158.146 27.694C158.319 27.6816 158.492 27.7195 158.645 27.8034C158.798 27.8872 158.925 28.0138 159.011 28.1685C159.173 28.4497 159.252 28.8519 159.252 29.3907V32.654C159.249 32.6797 159.254 32.7058 159.265 32.7289C159.265 32.7289 159.28 32.7421 159.338 32.7421H161.395C161.417 32.7437 161.439 32.7405 161.459 32.7329C161.464 32.7074 161.467 32.6814 161.467 32.6553V29.392C161.467 28.8519 161.548 28.4497 161.722 28.1672C161.813 28.0129 161.944 27.8874 162.099 27.8042C162.255 27.7211 162.43 27.6834 162.605 27.6953C162.777 27.6834 162.95 27.7213 163.103 27.8048C163.257 27.8884 163.384 28.0143 163.472 28.1685C163.632 28.4524 163.71 28.8519 163.71 29.392V32.6553C163.71 32.704 163.719 32.7263 163.725 32.7289C163.73 32.7316 163.739 32.7434 163.796 32.7434H165.852C165.88 32.7447 165.908 32.7407 165.934 32.7316C165.938 32.7068 165.94 32.6817 165.942 32.6567L165.944 29.0398Z" fill="white"/>
<path d="M173.685 26.757C173.306 26.457 172.873 26.2393 172.411 26.1169C171.846 25.9657 171.264 25.8936 170.68 25.9027H167.985C167.941 25.8979 167.897 25.9071 167.858 25.929C167.837 25.9693 167.828 26.015 167.832 26.0604V35.9344C167.832 36.0396 167.855 36.0659 167.858 36.0659C167.897 36.0883 167.941 36.098 167.985 36.0935H169.871C169.921 36.0989 169.971 36.0868 170.014 36.0593C170.039 36.0205 170.049 35.9739 170.043 35.9279V33.1337C170.038 33.0786 170.044 33.023 170.062 32.9708C170.08 32.9183 170.108 32.87 170.144 32.8289C170.184 32.7921 170.231 32.7639 170.281 32.746C170.332 32.7286 170.385 32.7215 170.438 32.725H170.595C171.354 32.7434 172.109 32.6094 172.818 32.3307C173.388 32.1022 173.877 31.6997 174.22 31.1768C174.551 30.6669 174.712 30.0269 174.712 29.2712C174.709 28.1632 174.365 27.3195 173.685 26.757ZM171.928 30.4619C171.608 30.7379 171.155 30.8759 170.595 30.8759H170.439C170.386 30.8838 170.332 30.8784 170.281 30.8601C170.23 30.8427 170.183 30.8125 170.145 30.772C170.107 30.7328 170.078 30.6852 170.06 30.6327C170.043 30.5794 170.037 30.5228 170.044 30.4671V28.1908C170.038 28.0831 170.07 27.9767 170.134 27.8912C170.173 27.8482 170.221 27.8145 170.274 27.7926C170.326 27.7718 170.383 27.7632 170.439 27.7676H170.596C171.18 27.7676 171.632 27.8991 171.939 28.1475C172.246 28.3958 172.426 28.8046 172.426 29.3027C172.434 29.5221 172.393 29.7406 172.307 29.9414C172.221 30.1429 172.091 30.321 171.928 30.4619Z" fill="white"/>
<path d="M181.467 26.6005C180.916 26.0118 180.05 25.7121 178.892 25.7121C178.425 25.7042 177.958 25.7425 177.498 25.8265C177.439 25.8317 177.382 25.853 177.334 25.8882C177.314 25.9445 177.308 26.0053 177.319 26.0643L177.473 27.4154C177.477 27.4712 177.491 27.5259 177.514 27.5771C177.543 27.5852 177.573 27.5888 177.603 27.5876L177.934 27.5731C178.17 27.5534 178.363 27.5429 178.51 27.5429C178.907 27.5223 179.299 27.6383 179.625 27.8728C179.766 27.9874 179.881 28.1322 179.963 28.2973C180.043 28.4606 180.089 28.6398 180.098 28.823L180.131 29.2343L179.799 29.007C179.417 28.7559 178.924 28.6297 178.332 28.6297C177.877 28.6172 177.425 28.7069 177.008 28.8926C176.667 29.049 176.376 29.3025 176.169 29.6233C175.967 29.9556 175.864 30.3418 175.874 30.7339C175.864 31.1341 175.964 31.5289 176.164 31.872C176.366 32.1977 176.657 32.4539 177 32.608C177.418 32.7925 177.869 32.8821 178.324 32.8709C178.605 32.8722 178.886 32.8342 179.157 32.7579C179.381 32.6966 179.591 32.5898 179.774 32.4437L180.096 32.1809V32.6632C180.094 32.6811 180.094 32.6992 180.096 32.7171C180.114 32.719 180.131 32.719 180.149 32.7171H182.289C182.29 32.6983 182.29 32.6794 182.289 32.6606V29.1778C182.298 28.066 182.019 27.1998 181.467 26.6005ZM179.844 31.5159C179.648 31.7049 179.387 31.8064 179.119 31.7984C178.988 31.8015 178.858 31.7778 178.737 31.7288C178.613 31.6779 178.5 31.6015 178.405 31.504C178.31 31.4044 178.236 31.286 178.186 31.1558C178.138 31.0251 178.115 30.8856 178.12 30.7457C178.114 30.607 178.136 30.4685 178.186 30.3396C178.236 30.2106 178.312 30.0941 178.409 29.9979C178.607 29.8179 178.862 29.7183 179.125 29.718C179.39 29.7179 179.645 29.8175 179.843 29.9979C179.946 30.0951 180.026 30.215 180.078 30.3488C180.131 30.4821 180.155 30.6256 180.149 30.7694C180.153 30.9083 180.13 31.0468 180.078 31.1755C180.024 31.3047 179.944 31.4207 179.844 31.5159Z" fill="white"/>
<path d="M190.364 26.5507C190.155 26.2865 189.884 26.0815 189.577 25.9553C189.228 25.8157 188.856 25.7479 188.482 25.7555C188.14 25.7535 187.801 25.8274 187.489 25.9724C187.203 26.1008 186.949 26.2961 186.749 26.5428L186.397 26.9883V26.0683C186.401 26.0228 186.391 25.9771 186.37 25.9369C186.37 25.9369 186.34 25.9093 186.228 25.9093H184.341C184.296 25.9059 184.252 25.9155 184.213 25.9369C184.193 25.9772 184.184 26.0229 184.188 26.0683V32.6528C184.186 32.6802 184.189 32.7076 184.195 32.7343C184.216 32.739 184.238 32.7412 184.259 32.7408H186.33C186.351 32.7406 186.372 32.7385 186.393 32.7343C186.4 32.7076 186.402 32.6802 186.401 32.6528V29.3894C186.401 28.8545 186.491 28.4563 186.675 28.1724C186.875 27.8636 187.184 27.7072 187.606 27.7072C188.028 27.7072 188.335 27.861 188.53 28.1633C188.71 28.4432 188.798 28.8453 188.798 29.3868V32.6501C188.795 32.6758 188.8 32.7016 188.81 32.725C188.833 32.7357 188.858 32.7398 188.883 32.7369H190.941C190.962 32.7392 190.983 32.7361 191.003 32.7277C191.009 32.7023 191.012 32.6763 191.012 32.6501V29.0399C191.008 27.9267 190.79 27.0921 190.364 26.5507Z" fill="white"/>
<path d="M199.972 25.9027H197.858C197.786 25.8961 197.713 25.9079 197.647 25.9369C197.637 25.9369 197.609 25.9632 197.578 26.0499L196.071 29.7443L194.556 26.0644C194.52 25.9606 194.493 25.933 194.482 25.933C194.415 25.9042 194.342 25.8921 194.27 25.8975H192.089C192.091 25.9221 192.096 25.9463 192.104 25.9697L194.87 32.3965L193.229 36.0501C193.221 36.0652 193.215 36.081 193.21 36.0974H195.516C195.528 36.099 195.541 36.0978 195.552 36.094C195.564 36.0901 195.575 36.0837 195.584 36.0751C195.63 36.0195 195.665 35.9558 195.69 35.8872L199.975 26.0052C199.989 25.9714 199.997 25.9355 200 25.8988L199.972 25.9027Z" fill="white"/>
</svg>
