<svg width="340" height="56" viewBox="0 0 340 56" fill="none" xmlns="http://www.w3.org/2000/svg">
<g clip-path="url(#clip0_51_18137)">
<path d="M2.38581 0.890413L2.34256 0.929304V0.864486L2.38581 0.890413ZM3.35808 0.328661C3.37802 0.316343 3.39991 0.307571 3.42285 0.302734L3.33645 0.350267L3.35808 0.328661Z" fill="white"/>
<path d="M17.2175 46.0513L17.1483 47.1495V49.2421L585.543 49.0908H592V50.202H585.543L16.9323 50.3792L17.2175 46.0513Z" fill="#022F45"/>
<path fill-rule="evenodd" clip-rule="evenodd" d="M591.9 30.9229V31.7872H586.598V30.9229H591.9ZM575.992 30.9229V31.7872H565.387V30.9229H575.992ZM554.786 30.9229V31.7872H544.18V30.9229H554.786ZM533.575 30.9229V31.7872H522.974V30.9229H533.575ZM512.369 30.9229V31.7872H501.763V30.9229H512.369ZM491.158 30.9229V31.7872H480.557V30.9229H491.158ZM469.951 30.9229V31.7872H459.324V30.9229H469.951ZM448.745 30.9229V31.7872H438.148V30.9229H448.745ZM427.534 30.9229V31.7872H416.933V30.9229H427.534ZM406.328 30.9229V31.7872H395.722V30.9229H406.328ZM385.121 30.9229V31.7872H374.516V30.9229H385.121ZM363.911 30.9229V31.7872H353.305V30.9229H363.911ZM342.704 30.9229V31.7872H332.099V30.9229H342.704ZM321.493 30.9229V31.7872H310.888V30.9229H321.493ZM300.287 30.9229V31.7872H289.681V30.9229H300.287ZM279.076 30.9229V31.7872H268.475V30.9229H279.076ZM257.87 30.9229V31.7872H247.264V30.9229H257.87ZM236.663 30.9229V31.7872H226.058V30.9229H236.663ZM215.452 30.9229V31.7872H204.847V30.9229H215.452ZM194.246 30.9229V31.7872H183.641V30.9229H194.246ZM173.035 30.9229V31.7872H162.426V30.9229H173.035ZM151.829 30.9229V31.7872H141.223V30.9229H151.829ZM130.622 30.9229V31.7872H120.017V30.9229H130.622ZM109.411 30.9229V31.7872H98.8062V30.9229H109.411ZM88.2051 30.9229V31.7872H77.5997V30.9229H88.2051ZM66.9943 30.9229V31.7872H56.3932V30.9229H66.9943ZM45.7878 30.9229V31.7872H35.1824V30.9229H45.7878ZM24.5814 30.9229V31.7872H19.2787V30.9229H24.5814Z" fill="#022F45"/>
<path d="M0.596252 4.78183C0.57196 3.62295 0.976929 2.49604 1.73328 1.618C2.48969 0.739959 3.54395 0.17284 4.69318 0.0258027C5.68756 -0.0928881 6.69452 0.0911886 7.5827 0.553991C8.47089 1.01679 9.19897 1.73681 9.67175 2.62C9.7879 2.84635 9.8847 3.0821 9.96124 3.32475L13.4661 14.1815L591.9 14.0258V15.0894L19.3047 15.3921L17.3124 50.3878H0.0257568L0.596252 4.78183ZM16.0807 49.0907L17.991 15.5088H12.524L8.72528 3.75279C8.67627 3.58406 8.61121 3.42045 8.53082 3.26422C8.18524 2.60907 7.65027 2.07336 6.99573 1.72705C6.34119 1.38073 5.59747 1.23988 4.86169 1.3229C4.0271 1.43058 3.26196 1.84359 2.71368 2.48229C2.16547 3.121 1.87299 3.94016 1.8927 4.78183L1.3136 49.0734L16.0807 49.0907Z" fill="#022F45"/>
<path d="M1.31384 49.0908H16.081L17.9912 15.5089H12.5243L8.72552 3.75291C8.67654 3.58417 8.61144 3.42056 8.53106 3.26433C8.1855 2.60918 7.65049 2.07348 6.99595 1.72716C6.34141 1.38084 5.59774 1.24 4.86197 1.32301C4.02737 1.43069 3.26219 1.8437 2.71395 2.48241C2.16571 3.12111 1.87325 3.94028 1.89298 4.78194L1.31384 49.0908Z" fill="#FEB703"/>
<path d="M319.735 32.2196C319.735 36.9228 318.341 41.5205 315.729 45.4311C313.117 49.3417 309.405 52.3897 305.062 54.1895C300.718 55.9894 295.939 56.4603 291.328 55.5427C286.718 54.6252 282.482 52.3603 279.158 49.0346C275.834 45.7089 273.57 41.4717 272.653 36.8588C271.736 32.2459 272.207 27.4646 274.006 23.1193C275.805 18.7741 278.851 15.0601 282.76 12.4471C286.669 9.83413 291.264 8.43945 295.965 8.43945C302.269 8.43945 308.315 10.9449 312.773 15.4045C317.23 19.8641 319.735 25.9127 319.735 32.2196Z" fill="white"/>
<path fill-rule="evenodd" clip-rule="evenodd" d="M295.965 55.135C300.496 55.135 304.924 53.791 308.691 51.273C312.457 48.755 315.393 45.1762 317.127 40.9889C318.86 36.8017 319.314 32.1942 318.43 27.749C317.546 23.3039 315.365 19.2207 312.162 16.016C308.958 12.8112 304.877 10.6287 300.434 9.74451C295.991 8.86031 291.385 9.31411 287.2 11.0485C283.015 12.7829 279.438 15.7201 276.921 19.4885C274.404 23.2569 273.061 27.6873 273.061 32.2196C273.061 38.2971 275.474 44.1257 279.769 48.4232C284.065 52.7207 289.891 55.135 295.965 55.135ZM295.965 55.9997C300.667 55.9997 305.262 54.605 309.171 51.992C313.08 49.379 316.126 45.6651 317.925 41.3198C319.724 36.9746 320.195 32.1932 319.278 27.5803C318.361 22.9674 316.097 18.7302 312.773 15.4045C309.449 12.0788 305.213 9.81395 300.603 8.89639C295.992 7.97883 291.213 8.44976 286.869 10.2496C282.526 12.0495 278.814 15.0974 276.202 19.0081C273.59 22.9187 272.196 27.5163 272.196 32.2196C272.196 35.3424 272.811 38.4347 274.006 41.3198C275.2 44.205 276.951 46.8265 279.158 49.0347C283.616 53.4943 289.662 55.9997 295.965 55.9997Z" fill="#022F45"/>
<path d="M309.51 31.2988H309.579L311.308 31.5149L309.907 31.3291L309.51 31.2988Z" fill="#022F45"/>
<path d="M298.688 22.5215V36.4999H279.703V22.5215H298.688ZM298.446 22.7636H279.945V36.2577H298.446V22.7636Z" fill="#022F45"/>
<path d="M279.945 22.7637V36.2578H283.722C284.306 35.8526 285 35.6355 285.71 35.6355C286.421 35.6355 287.115 35.8526 287.698 36.2578H298.446V22.7637H279.945Z" fill="white"/>
<path d="M309.553 26.2705L311.523 31.5065L311.264 31.4805L309.877 31.3465L309.57 31.3162H309.375L309.038 31.2816H308.792L303.753 30.7931V26.2705H309.553ZM303.934 30.5942L308.688 31.0525L309.043 31.0871L311.255 31.3032H311.333L309.872 27.4509L309.475 26.4002H303.921L303.934 30.5942Z" fill="#022F45"/>
<path d="M307.91 30.2654L307.966 30.3259L308.649 31.0825L308.796 31.2425L309.539 36.2666L309.57 36.4914L309.807 36.4568L309.781 36.2666L309.042 31.2641V31.1171L308.325 30.3259L308.122 30.1011L307.91 30.2654Z" fill="#022F45"/>
<path d="M301.545 25.3882V34.4679H301.783V25.6303H306.83L307.634 26.2443L307.669 26.2702L307.768 26.348L307.872 26.4259L307.958 26.495L308.01 26.4259L308.071 26.348L308.105 26.3048L308.058 26.2702L307.31 25.6865L306.925 25.3882H301.545Z" fill="#022F45"/>
<path d="M307.591 26.3481H308.455V30.3086H307.591V26.3481Z" fill="#022F45"/>
<path d="M299.855 36.2796V24.5625H308.973C309.021 24.6394 309.064 24.7188 309.103 24.8003C309.999 27.2215 310.886 29.6457 311.765 32.0727C311.831 32.2617 311.865 32.4605 311.865 32.6607L311.89 36.5001V36.9325C311.89 37.4946 311.89 38.061 311.89 38.6274C311.881 38.7999 311.861 38.9718 311.83 39.1419H279.677V36.2796H299.855ZM309.332 36.2796H311.571V35.523L311.091 35.3543C311.061 34.6107 311.091 33.8627 311.091 33.106L311.588 32.9936C311.644 32.744 311.648 32.4857 311.601 32.2343C311.553 31.983 311.455 31.7441 311.311 31.5322V31.4847L311.251 31.3161L309.868 27.4723L309.6 26.8065L309.406 26.266V26.2228C309.289 25.9072 309.176 25.6002 309.06 25.2932L308.947 24.9862L308.883 24.8089H300.239C300.131 25.2932 300.105 33.7849 300.239 34.4766H301.704H301.825H302.028C302.823 34.4823 303.609 34.6453 304.34 34.9562C305.071 35.2672 305.734 35.7199 306.29 36.2883L309.332 36.2796Z" fill="#022F45"/>
<path d="M309.043 31.2642L309.795 36.2666H311.597V35.5273L311.091 35.3587C311.061 34.615 311.091 33.867 311.091 33.1104L311.588 32.9979C311.644 32.7484 311.649 32.49 311.601 32.2387C311.553 31.9874 311.455 31.7484 311.312 31.5366L309.583 31.3204H309.384L309.043 31.2642Z" fill="white"/>
<path d="M308.291 30.3084L309.008 31.0997L311.221 31.3158L309.842 27.4764L309.445 26.4258H308.447V30.3171L308.291 30.3084Z" fill="#9AACB5"/>
<path d="M303.917 26.4256V30.6066L308.671 31.0649L307.988 30.3083H307.612V26.417L303.917 26.4256Z" fill="#9AACB5"/>
<path d="M301.782 25.6304V34.4679H301.985C302.78 34.4736 303.566 34.6366 304.297 34.9475C305.028 35.2584 305.691 35.7112 306.246 36.2795H309.54L308.796 31.2554L303.744 30.7496V26.2703H307.634V26.2443L306.843 25.6304H301.782Z" fill="white"/>
<path d="M300.196 34.4763H301.545V25.3966H306.912L307.297 25.6949L308.066 26.27H309.419V26.2311L308.931 24.9859L308.866 24.8086H300.222C300.097 25.2928 300.075 33.7845 300.196 34.4763Z" fill="white"/>
<path d="M285.71 37.6675C285.998 37.6687 286.279 37.7544 286.518 37.9139C286.756 38.0727 286.941 38.2984 287.05 38.5625C287.16 38.8279 287.188 39.1199 287.132 39.4016C287.076 39.6832 286.938 39.9419 286.734 40.1449C286.532 40.3477 286.274 40.4859 285.994 40.5421C285.713 40.5983 285.422 40.5699 285.157 40.4606C284.892 40.3496 284.665 40.1632 284.505 39.9244C284.359 39.7058 284.276 39.452 284.263 39.1898C284.251 38.9276 284.31 38.6669 284.433 38.4354C284.557 38.2039 284.741 38.0103 284.966 37.8751C285.191 37.7399 285.448 37.6681 285.71 37.6675ZM285.71 40.3049C285.944 40.3049 286.173 40.2357 286.367 40.106C286.562 39.9764 286.712 39.791 286.799 39.5742C286.892 39.3668 286.923 39.1373 286.89 38.9127C286.842 38.684 286.73 38.4739 286.566 38.3074C286.399 38.1418 286.187 38.0292 285.956 37.9838C285.726 37.9384 285.487 37.9622 285.269 38.0523C285.053 38.142 284.869 38.2938 284.739 38.4885C284.609 38.6832 284.539 38.912 284.539 39.1462C284.541 39.4588 284.665 39.7583 284.885 39.9806C284.994 40.0893 285.123 40.1759 285.265 40.2357C285.402 40.2929 285.549 40.3237 285.697 40.3265L285.71 40.3049Z" fill="white"/>
<path d="M285.71 35.7695C286.372 35.7703 287.019 35.9674 287.568 36.3359C287.983 36.6108 288.331 36.9745 288.588 37.4008C288.844 37.827 289.003 38.3051 289.051 38.8002C289.1 39.2954 289.038 39.7952 288.87 40.2634C288.702 40.7316 288.431 41.1564 288.078 41.507C287.689 41.8954 287.21 42.1818 286.684 42.3409C286.158 42.5001 285.601 42.5271 285.062 42.4195C284.523 42.312 284.019 42.0732 283.594 41.7243C283.169 41.3754 282.837 40.9271 282.626 40.4191C282.416 39.9111 282.333 39.3591 282.387 38.8118C282.441 38.2645 282.628 37.7389 282.933 37.2813C283.238 36.8238 283.651 36.4485 284.135 36.1885C284.619 35.9286 285.16 35.7921 285.71 35.7911V35.7695ZM285.71 42.3372C286.262 42.3387 286.805 42.1976 287.286 41.9277C287.768 41.6578 288.172 41.2681 288.458 40.7963C288.745 40.3245 288.906 39.7867 288.924 39.2348C288.942 38.6829 288.817 38.1356 288.562 37.646C288.327 37.1904 287.984 36.7987 287.564 36.5046C287.453 36.4191 287.334 36.3439 287.21 36.2797L287.166 36.2538C286.715 36.0237 286.216 35.9038 285.71 35.9038C285.204 35.9038 284.705 36.0237 284.254 36.2538L284.21 36.2797C284.086 36.3439 283.967 36.4191 283.856 36.5046C283.301 36.8987 282.885 37.4592 282.669 38.1052C282.453 38.7511 282.448 39.4491 282.654 40.0983C282.86 40.7474 283.267 41.3141 283.817 41.7166C284.366 42.119 285.029 42.3363 285.71 42.3372Z" fill="white"/>
<path d="M283.433 36.5001L283.709 36.2753L283.744 36.2537C284.328 35.8485 285.021 35.6313 285.732 35.6313C286.443 35.6313 287.136 35.8485 287.72 36.2537L287.755 36.2753C288.17 36.5631 288.517 36.9395 288.77 37.3775C289.023 37.8155 289.175 38.3042 289.217 38.8083C289.258 39.3124 289.187 39.8194 289.009 40.2928C288.831 40.7662 288.55 41.1941 288.187 41.5458C287.701 42.0238 287.086 42.3487 286.417 42.4803C285.748 42.612 285.056 42.5445 284.425 42.2863C283.795 42.0282 283.254 41.5906 282.869 41.0279C282.484 40.4651 282.273 39.8019 282.262 39.1203C282.261 38.6241 282.366 38.1334 282.569 37.6805C282.772 37.2316 283.066 36.8297 283.433 36.5001ZM282.521 39.1246C282.552 39.9568 282.903 40.7447 283.503 41.3226C284.102 41.9006 284.902 42.2235 285.734 42.2235C286.567 42.2235 287.366 41.9006 287.966 41.3226C288.565 40.7447 288.917 39.9568 288.947 39.1246C288.945 38.61 288.82 38.1033 288.584 37.6459C288.348 37.1898 288.005 36.7969 287.586 36.5001C287.474 36.4176 287.355 36.3439 287.232 36.2796L287.188 36.2537C286.737 36.0236 286.238 35.9037 285.732 35.9037C285.226 35.9037 284.727 36.0236 284.276 36.2537L284.232 36.2796C284.109 36.3439 283.99 36.4176 283.878 36.5001C283.46 36.7982 283.118 37.1907 282.88 37.6459C282.636 38.1009 282.505 38.6082 282.499 39.1246H282.521Z" fill="#022F45"/>
<path d="M283.865 36.4997C283.978 36.4173 284.096 36.3422 284.219 36.2749L284.262 36.2533C284.713 36.0232 285.213 35.9033 285.719 35.9033C286.225 35.9033 286.724 36.0232 287.175 36.2533L287.218 36.2749C287.341 36.3422 287.46 36.4173 287.573 36.4997C287.992 36.7959 288.334 37.1885 288.57 37.6444C288.806 38.1004 288.93 38.6064 288.93 39.1199C288.93 39.9719 288.592 40.789 287.989 41.3914C287.387 41.9939 286.57 42.3324 285.719 42.3324C284.867 42.3324 284.05 41.9939 283.448 41.3914C282.846 40.789 282.508 39.9719 282.508 39.1199C282.508 38.6064 282.631 38.1004 282.867 37.6444C283.103 37.1885 283.446 36.7959 283.865 36.4997ZM285.719 40.577C286.007 40.5757 286.288 40.49 286.527 40.3305C286.766 40.1711 286.951 39.9437 287.059 39.6776C287.169 39.4123 287.199 39.12 287.143 38.8379C287.087 38.5558 286.949 38.2967 286.745 38.0936C286.542 37.8905 286.283 37.7525 286 37.6974C285.718 37.6422 285.426 37.6723 285.161 37.7839C284.894 37.8919 284.667 38.0789 284.509 38.32C284.364 38.5386 284.28 38.7925 284.268 39.0546C284.255 39.3168 284.314 39.5775 284.437 39.809C284.561 40.0405 284.745 40.2341 284.97 40.3694C285.195 40.5046 285.452 40.5763 285.715 40.577H285.719Z" fill="white"/>
<path d="M285.71 37.6675C285.998 37.6687 286.279 37.7544 286.518 37.9139C286.756 38.0727 286.941 38.2984 287.05 38.5625C287.16 38.8279 287.188 39.1199 287.132 39.4016C287.076 39.6832 286.938 39.9419 286.734 40.1449C286.532 40.3477 286.274 40.4859 285.994 40.5421C285.713 40.5983 285.422 40.5699 285.157 40.4606C284.892 40.3496 284.665 40.1632 284.505 39.9244C284.359 39.7058 284.276 39.452 284.263 39.1898C284.251 38.9276 284.31 38.6669 284.433 38.4354C284.557 38.2039 284.741 38.0103 284.966 37.8751C285.191 37.7399 285.448 37.6681 285.71 37.6675ZM285.71 40.3049C285.944 40.3049 286.173 40.2357 286.367 40.106C286.562 39.9764 286.712 39.791 286.799 39.5742C286.892 39.3668 286.923 39.1373 286.89 38.9127C286.842 38.684 286.73 38.4739 286.566 38.3074C286.399 38.1418 286.187 38.0292 285.956 37.9838C285.726 37.9384 285.487 37.9622 285.269 38.0523C285.053 38.142 284.869 38.2938 284.739 38.4885C284.609 38.6832 284.539 38.912 284.539 39.1462C284.541 39.4588 284.665 39.7583 284.885 39.9806C284.994 40.0893 285.123 40.1759 285.265 40.2357C285.402 40.2929 285.549 40.3237 285.697 40.3265L285.71 40.3049Z" fill="#022F45"/>
<path d="M284.543 39.3153C284.506 39.085 284.538 38.8488 284.635 38.6367C284.732 38.4246 284.89 38.2459 285.088 38.1234C285.287 38.0008 285.517 37.9398 285.75 37.948C285.983 37.9562 286.208 38.0334 286.398 38.1696C286.587 38.3059 286.732 38.4952 286.813 38.7137C286.895 38.9322 286.91 39.17 286.857 39.3971C286.804 39.6242 286.685 39.8305 286.515 39.9899C286.344 40.1493 286.131 40.2546 285.901 40.2926C285.747 40.3179 285.59 40.3127 285.439 40.2773C285.288 40.2418 285.145 40.1768 285.019 40.086C284.893 39.9952 284.786 39.8804 284.704 39.7481C284.623 39.6159 284.568 39.4688 284.543 39.3153Z" fill="white"/>
<path d="M302.828 37.6675C303.116 37.6687 303.397 37.7544 303.637 37.9139C303.874 38.0739 304.059 38.3006 304.168 38.5655C304.277 38.8303 304.305 39.1215 304.25 39.4024C304.194 39.6834 304.056 39.9415 303.854 40.1444C303.652 40.3473 303.394 40.4859 303.114 40.5427C302.832 40.5988 302.54 40.57 302.274 40.4599C302.009 40.3498 301.782 40.1635 301.623 39.9244C301.477 39.7058 301.394 39.452 301.382 39.1898C301.369 38.9276 301.428 38.6669 301.551 38.4354C301.675 38.2039 301.859 38.0103 302.084 37.8751C302.309 37.7399 302.566 37.6681 302.828 37.6675ZM302.828 40.3049C303.062 40.3048 303.291 40.2354 303.486 40.1053C303.68 39.9753 303.832 39.7905 303.922 39.5742C304.008 39.3573 304.03 39.1203 303.987 38.8911C303.94 38.6618 303.828 38.4512 303.663 38.2858C303.497 38.1208 303.287 38.0093 303.057 37.9658C302.83 37.9202 302.594 37.9427 302.379 38.0307C302.126 38.1332 301.917 38.3202 301.786 38.5598C301.656 38.7994 301.612 39.0769 301.663 39.3451C301.714 39.6132 301.856 39.8553 302.066 40.0303C302.275 40.2053 302.538 40.3024 302.811 40.3049H302.828Z" fill="white"/>
<path d="M302.828 35.7695C303.606 35.7677 304.36 36.0357 304.962 36.528C305.564 37.0202 305.976 37.7061 306.129 38.4686C306.282 39.2312 306.165 40.0231 305.8 40.7094C305.434 41.3957 304.842 41.9338 304.124 42.2319C303.406 42.53 302.606 42.5697 301.862 42.3441C301.119 42.1185 300.476 41.6416 300.044 40.9949C299.612 40.3482 299.418 39.5716 299.495 38.7977C299.572 38.0237 299.914 37.3004 300.465 36.751C301.091 36.1233 301.942 35.7702 302.828 35.7695ZM302.828 42.3372C303.462 42.3355 304.081 42.1476 304.609 41.7967C305.141 41.4424 305.555 40.938 305.8 40.3476C306.045 39.7571 306.108 39.1073 305.983 38.4805C305.824 37.7003 305.382 37.0068 304.741 36.5342C304.101 36.0615 303.308 35.8434 302.516 35.9219C301.724 36.0005 300.989 36.3701 300.454 36.9593C299.918 37.5485 299.62 38.3155 299.617 39.1117C299.619 39.9634 299.957 40.7798 300.559 41.382C301.161 41.9842 301.977 42.3231 302.828 42.3242V42.3372Z" fill="white"/>
<path d="M302.828 35.6353C303.344 35.6343 303.853 35.7479 304.319 35.9677C304.786 36.1876 305.197 36.5082 305.525 36.9065C305.852 37.3048 306.087 37.7709 306.213 38.2711C306.338 38.7713 306.351 39.2931 306.251 39.7989C306.12 40.4772 305.789 41.1007 305.3 41.5889C304.813 42.0771 304.192 42.4095 303.516 42.5442C302.84 42.6789 302.139 42.6098 301.502 42.3456C300.758 42.036 300.145 41.4786 299.766 40.768C299.386 40.0575 299.265 39.2376 299.421 38.4473C299.577 37.6571 300.002 36.9454 300.623 36.4328C301.244 35.9202 302.023 35.6384 302.828 35.6353ZM302.828 42.3369C303.462 42.3352 304.081 42.1473 304.609 41.7965C305.141 41.4421 305.555 40.9377 305.8 40.3473C306.044 39.7569 306.108 39.107 305.983 38.4802C305.824 37.7 305.382 37.0065 304.741 36.5339C304.1 36.0613 303.308 35.8432 302.515 35.9217C301.723 36.0002 300.989 36.3699 300.453 36.9591C299.918 37.5483 299.62 38.3152 299.617 39.1115C299.618 39.9631 299.957 40.7796 300.559 41.3818C301.161 41.984 301.977 42.3228 302.828 42.324V42.3369Z" fill="#022F45"/>
<path d="M302.829 35.9077C303.304 35.9093 303.773 36.0161 304.202 36.2207C304.631 36.4252 305.009 36.7223 305.309 37.0906C305.61 37.4589 305.825 37.8893 305.939 38.3507C306.053 38.8121 306.064 39.2931 305.97 39.7592C305.877 40.2252 305.681 40.6647 305.397 41.0459C305.113 41.4272 304.748 41.7408 304.329 41.9641C303.909 42.1875 303.446 42.3151 302.971 42.3377C302.496 42.3603 302.023 42.2773 301.584 42.0949C300.997 41.8497 300.495 41.4378 300.14 40.9102C299.818 40.426 299.632 39.8633 299.603 39.2819C299.575 38.7006 299.705 38.1224 299.979 37.6089C300.253 37.0955 300.661 36.6661 301.16 36.3665C301.659 36.067 302.229 35.9084 302.811 35.9077H302.829ZM302.829 40.5773C303.116 40.576 303.397 40.4903 303.637 40.3308C303.879 40.1727 304.067 39.9451 304.177 39.6779C304.288 39.4145 304.317 39.1235 304.259 38.8435C304.218 38.633 304.13 38.4343 304.003 38.2617C303.876 38.0891 303.711 37.947 303.522 37.8457C303.333 37.7443 303.124 37.6862 302.91 37.6756C302.696 37.665 302.482 37.702 302.284 37.7842C302.017 37.8922 301.789 38.0792 301.631 38.3203C301.486 38.5389 301.403 38.7928 301.39 39.055C301.378 39.3171 301.436 39.5778 301.56 39.8093C301.684 40.0408 301.868 40.2344 302.093 40.3697C302.318 40.5049 302.575 40.5766 302.837 40.5773H302.829Z" fill="white"/>
<path d="M302.828 37.6675C303.116 37.6687 303.397 37.7544 303.637 37.9139C303.874 38.0739 304.059 38.3006 304.168 38.5655C304.277 38.8303 304.305 39.1215 304.25 39.4024C304.194 39.6834 304.056 39.9415 303.854 40.1444C303.652 40.3473 303.394 40.4859 303.114 40.5427C302.832 40.5988 302.54 40.57 302.274 40.4599C302.009 40.3498 301.782 40.1635 301.623 39.9244C301.477 39.7058 301.394 39.452 301.382 39.1898C301.369 38.9276 301.428 38.6669 301.551 38.4354C301.675 38.2039 301.859 38.0103 302.084 37.8751C302.309 37.7399 302.566 37.6681 302.828 37.6675ZM302.828 40.3049C303.062 40.3048 303.291 40.2354 303.486 40.1053C303.68 39.9753 303.832 39.7905 303.922 39.5742C304.008 39.3573 304.03 39.1203 303.987 38.8911C303.94 38.6618 303.828 38.4512 303.663 38.2858C303.497 38.1208 303.287 38.0093 303.057 37.9658C302.83 37.9202 302.594 37.9427 302.379 38.0307C302.126 38.1332 301.917 38.3202 301.786 38.5598C301.656 38.7994 301.612 39.0769 301.663 39.3451C301.714 39.6132 301.856 39.8553 302.066 40.0303C302.275 40.2053 302.538 40.3024 302.811 40.3049H302.828Z" fill="#022F45"/>
<path d="M302.016 39.9594C301.851 39.7943 301.738 39.5839 301.693 39.3549C301.647 39.1259 301.67 38.8885 301.76 38.6727C301.849 38.457 302 38.2726 302.194 38.1428C302.388 38.0131 302.617 37.9438 302.85 37.9438C303.083 37.9438 303.312 38.0131 303.506 38.1428C303.7 38.2726 303.851 38.457 303.94 38.6727C304.029 38.8885 304.053 39.1259 304.007 39.3549C303.962 39.5839 303.849 39.7943 303.684 39.9594C303.463 40.1806 303.163 40.305 302.85 40.305C302.537 40.305 302.237 40.1806 302.016 39.9594Z" fill="white"/>
<path d="M99.3294 31.7801C99.3294 36.4834 97.9354 41.081 95.3236 44.9916C92.7118 48.9023 88.9996 51.9502 84.6563 53.7501C80.3131 55.5499 75.5339 56.0209 70.9231 55.1033C66.3123 54.1857 62.077 51.9209 58.7529 48.5952C55.4287 45.2695 53.1649 41.0323 52.2477 36.4194C51.3306 31.8065 51.8013 27.0251 53.6003 22.6799C55.3994 18.3346 58.4459 14.6207 62.3548 12.0077C66.2636 9.39468 70.8591 8 75.5602 8C81.8642 8 87.91 10.5054 92.3676 14.965C96.8252 19.4247 99.3294 25.4732 99.3294 31.7801Z" fill="white"/>
<path fill-rule="evenodd" clip-rule="evenodd" d="M75.5602 54.6955C80.0904 54.6955 84.5188 53.3515 88.2855 50.8336C92.0522 48.3156 94.9879 44.7367 96.7216 40.5495C98.4552 36.3622 98.9088 31.7547 98.025 27.3096C97.1412 22.8644 94.9597 18.7813 91.7564 15.5765C88.5531 12.3717 84.4718 10.1892 80.0287 9.30505C75.5856 8.42086 70.9802 8.87466 66.7949 10.6091C62.6096 12.3435 59.0323 15.2806 56.5155 19.049C53.9987 22.8174 52.6554 27.2479 52.6554 31.7801C52.6554 37.8577 55.0685 43.6863 59.364 47.9837C63.6595 52.2812 69.4855 54.6955 75.5602 54.6955ZM75.5602 55.5602C80.2613 55.5602 84.8568 54.1656 88.7657 51.5526C92.6745 48.9396 95.7211 45.2256 97.5201 40.8804C99.3191 36.5351 99.7898 31.7537 98.8727 27.1409C97.9556 22.528 95.6918 18.2908 92.3676 14.965C89.0434 11.6393 84.8081 9.3745 80.1974 8.45694C75.5866 7.53938 70.8074 8.0103 66.4641 9.81016C62.1209 11.61 58.4086 14.658 55.7968 18.5686C53.1851 22.4792 51.791 27.0769 51.791 31.7801C51.791 34.903 52.4058 37.9952 53.6003 40.8804C54.7949 43.7655 56.5457 46.387 58.7529 48.5952C63.2104 53.0548 69.2562 55.5602 75.5602 55.5602Z" fill="#022F45"/>
<mask id="mask0_51_18137" style="mask-type:luminance" maskUnits="userSpaceOnUse" x="59" y="14" width="34" height="35">
<path d="M92.1207 14.9697H59.168V48.4262H92.1207V14.9697Z" fill="white"/>
</mask>
<g mask="url(#mask0_51_18137)">
<path d="M87.1079 36.8947C87.1083 38.9756 86.6863 41.0349 85.8676 42.9478C85.5967 43.5597 85.259 44.1397 84.8607 44.6773C84.637 44.9892 84.3837 45.2788 84.1044 45.542C82.7344 46.8391 80.647 47.5223 78.1318 47.5223C77.528 47.523 76.9248 47.4869 76.3254 47.4142C73.2597 47.0371 70.324 45.9505 67.7512 44.2406C63.0362 41.0195 61.247 36.0992 60.5988 33.4315C60.1018 31.4469 59.2202 26.1245 62.4225 21.5025C63.0941 20.5203 63.8885 19.6281 64.7865 18.8478H64.8081C65.9094 17.9038 67.1752 17.1709 68.542 16.6859C69.8145 16.2446 71.1497 16.0111 72.4964 15.9941C77.6175 15.9466 81.52 19.3234 83.0931 20.9447L89.0829 17.5334C89.1442 17.499 89.2116 17.4771 89.2813 17.4689C89.351 17.4608 89.4217 17.4665 89.4892 17.4858C89.6255 17.5244 89.7417 17.6143 89.8133 17.7366C89.8477 17.7978 89.8695 17.8653 89.8777 17.935C89.8859 18.0048 89.8801 18.0755 89.8608 18.143C89.843 18.2106 89.8115 18.2738 89.7684 18.3288C89.7253 18.3838 89.6715 18.4295 89.6102 18.463L83.8537 21.736C84.8621 22.8781 85.612 24.2246 86.0521 25.6835C86.4921 27.1424 86.612 28.6792 86.4035 30.1887C87.6309 29.5791 88.8885 29.4883 89.8306 30.0331C90.1494 30.219 90.4266 30.4685 90.6452 30.7659C90.8637 31.0634 91.0189 31.4026 91.1012 31.7625C91.4988 33.4963 89.8219 35.6538 87.1079 36.8947Z" fill="white"/>
<path d="M92.0428 31.5118C91.9347 31.0184 91.7273 30.5521 91.4335 30.1412C91.1359 29.7343 90.7578 29.3928 90.3228 29.1381C89.45 28.6636 88.4327 28.5281 87.4662 28.7577C87.4632 27.6995 87.3179 26.6466 87.034 25.6273C86.6721 24.3056 86.0764 23.0594 85.2751 21.9479L90.0678 19.2197C90.4117 19.0259 90.6645 18.7034 90.7707 18.3231C90.8769 17.9428 90.8277 17.5359 90.634 17.1919C90.4403 16.8479 90.1179 16.5949 89.7378 16.4887C89.3577 16.3825 88.951 16.4317 88.6071 16.6255L83.2396 19.678C81.4072 17.9485 77.5479 14.9565 72.591 14.9565H72.4829C71.03 14.9804 69.5901 15.2358 68.2175 15.7132C66.8873 16.1925 65.646 16.8894 64.544 17.7756L63.9347 18.2944C63.0705 19.0816 62.2991 19.965 61.6355 20.9275C58.7314 25.1215 58.9561 29.8083 59.4229 32.4501H59.3796L59.6649 33.6218C60.3477 36.4105 62.2276 41.5773 67.2105 44.9714C69.9117 46.7653 72.9942 47.9038 76.2125 48.2963C76.8565 48.3743 77.5044 48.4148 78.153 48.4173C80.9448 48.4173 83.2309 47.6434 84.7781 46.1777C85.0978 45.8766 85.3873 45.545 85.6424 45.1875C86.0764 44.6037 86.4459 43.9745 86.7445 43.3111C87.5427 41.4683 87.9827 39.4903 88.041 37.4828C90.863 36.0171 92.488 33.6174 92.0428 31.5118ZM86.7142 36.03L86.161 36.2851V36.8904C86.1557 38.8224 85.7634 40.7336 85.0072 42.5112C84.7612 43.0547 84.4585 43.5707 84.1039 44.0504C83.9186 44.3093 83.7088 44.5497 83.4773 44.7682C82.2931 45.9053 80.4521 46.4976 78.1573 46.4976C77.5883 46.4968 77.0198 46.4636 76.4546 46.3982C73.5395 46.0366 70.7488 45.0003 68.3039 43.3716C64.1594 40.5526 62.4005 36.3068 61.6788 33.6953L61.5361 33.1289C61.0564 31.1962 60.2396 26.2499 63.2216 21.9565C63.8365 21.0586 64.5626 20.2422 65.3824 19.5266L65.4602 19.4575C66.472 18.5814 67.6368 17.8998 68.896 17.447C70.0614 17.0597 71.2808 16.8598 72.5089 16.8546H72.5996C77.3535 16.8546 81.0485 20.1103 82.4141 21.5199L82.9068 22.043L83.1229 22.2851C84.1014 23.3849 84.8128 24.6959 85.2016 26.1159C85.5437 27.3745 85.6289 28.689 85.4523 29.9812L85.2146 31.7496L86.8136 30.9541C87.786 30.4698 88.7065 30.405 89.3461 30.7682C89.5516 30.89 89.73 31.0526 89.8704 31.2459C90.0109 31.4392 90.1104 31.6592 90.1629 31.8923C90.4568 33.224 88.9572 34.9967 86.7056 36.0344L86.7142 36.03Z" fill="white"/>
<path d="M91.1182 31.7109C91.0348 31.3515 90.8791 31.0128 90.6607 30.7155C90.4422 30.4181 90.1656 30.1684 89.8476 29.9814C88.9012 29.4367 87.6522 29.5491 86.4205 30.1371C86.6296 28.6282 86.5099 27.092 86.0698 25.6337C85.6297 24.1754 84.8795 22.8296 83.8708 21.6887L89.6315 18.4157C89.7546 18.345 89.8447 18.2284 89.8819 18.0914C89.9192 17.9544 89.9007 17.8083 89.8303 17.685C89.7953 17.6255 89.7499 17.5728 89.6964 17.5293C89.6391 17.4866 89.5747 17.4544 89.5062 17.4342C89.4377 17.4212 89.3673 17.4212 89.2988 17.4342C89.2291 17.4433 89.1616 17.4653 89.1 17.499L83.1145 20.9061C81.5457 19.289 77.6475 15.9123 72.5134 15.9555C71.1663 15.9721 69.8309 16.2072 68.5591 16.6516C67.1927 17.1376 65.9271 17.8703 64.8251 18.8134C63.926 19.5923 63.1301 20.483 62.4569 21.4638C59.2545 26.0901 60.1405 31.4082 60.6331 33.3928C61.2814 36.0432 63.0749 40.9678 67.7898 44.2019C70.3626 45.9118 73.2983 46.9984 76.364 47.3755C76.9622 47.4461 77.5639 47.4822 78.1661 47.4836C80.6857 47.4836 82.7687 46.8005 84.143 45.499C84.4172 45.2346 84.6661 44.9451 84.8864 44.6343C85.2834 44.095 85.6223 43.5153 85.8976 42.9048C86.7104 40.9993 87.1308 38.9494 87.1336 36.8777C89.8217 35.6541 91.4985 33.4966 91.1182 31.7109ZM65.3783 19.1723C66.259 18.4366 67.2472 17.8403 68.3084 17.4039C71.9076 18.6542 75.0063 21.0354 77.1419 24.1921L66.6316 30.1155C65.0835 26.683 64.6483 22.8518 65.387 19.1593L65.3783 19.1723ZM72.5134 16.5781H72.6171C77.2932 16.5781 80.9061 19.6047 82.4921 21.1828L77.721 23.8678C75.6538 20.7976 72.705 18.4263 69.2635 17.0667C70.3246 16.743 71.4258 16.5698 72.535 16.5522L72.5134 16.5781ZM62.9539 21.8357C63.4422 21.125 63.9964 20.462 64.6091 19.8554C64.286 22.001 64.3357 24.1863 64.756 26.315C65.0414 27.7328 65.4865 29.1136 66.0828 30.4311L61.2122 33.1809C60.7412 31.2266 59.946 26.1982 62.9668 21.8357H62.9539ZM86.6539 36.3977L86.4638 36.4842V36.7004C86.4893 38.7469 86.0875 40.7762 85.2839 42.6584C85.0268 43.2255 84.7095 43.7633 84.3375 44.2625C84.1379 44.54 83.9137 44.7991 83.6676 45.0364C80.3313 48.197 72.7943 46.8523 68.1096 43.6701C67.1424 43.0127 66.2536 42.2468 65.4604 41.3872C66.0392 41.2175 66.565 40.9027 66.9879 40.4726C67.4109 40.0425 67.717 39.5114 67.8772 38.9297C68.0374 38.348 68.0463 37.735 67.9032 37.1488C67.7601 36.5627 67.4697 36.0229 67.0594 35.5806C67.7684 35.636 68.4715 35.4157 69.0221 34.9654C69.5728 34.5152 69.9286 33.8698 70.0155 33.1636C70.0461 32.5967 69.8983 32.0344 69.5928 31.5559C69.2874 31.0774 68.8397 30.7067 68.3127 30.4959L83.283 21.987C84.3182 23.1275 85.0754 24.4924 85.4953 25.9746C85.9152 27.4568 85.9863 29.0162 85.7031 30.5305C85.1618 30.899 84.6695 31.3348 84.2381 31.8276L84.7221 32.26C86.2347 30.5305 88.2573 29.7955 89.5235 30.5305C89.7646 30.6753 89.9746 30.8663 90.1415 31.0926C90.3051 31.3213 90.4226 31.5798 90.4872 31.8536C90.8157 33.3928 89.1907 35.3125 86.6539 36.415V36.3977Z" fill="#022F45"/>
<path d="M78.1962 40.0856C76.836 39.8362 75.5776 39.1962 74.5747 38.2437C74.8309 37.9666 75.1452 37.7495 75.4952 37.6082C75.9058 37.4354 76.3462 37.3443 76.7917 37.3401C76.3433 37.0965 75.8257 37.0121 75.3232 37.1007C74.8208 37.1893 74.3632 37.4457 74.0251 37.8281C73.6871 38.2104 73.4886 38.6961 73.462 39.2058C73.4355 39.7156 73.5824 40.2193 73.8789 40.6347C73.7629 39.8452 73.9632 39.0418 74.4364 38.3994C74.6813 39.0079 75.0663 39.5501 75.56 39.9819C76.4142 40.7463 77.5212 41.1668 78.6673 41.1622C79.3239 41.1713 79.9744 41.0349 80.5722 40.7628C81.1699 40.4907 81.7001 40.0896 82.1246 39.5884C80.8773 40.0802 79.5266 40.2511 78.1962 40.0856Z" fill="#022F45"/>
<path d="M79.9076 31.0792C78.745 31.2176 77.7035 30.5777 77.0034 29.5659C76.9299 31.0792 78.5333 32.3547 80.0286 32.1169C81.5541 31.9439 82.7469 30.275 82.2326 28.8223C81.8783 29.994 81.0658 30.9149 79.9076 31.0792Z" fill="#022F45"/>
<path d="M78.5078 27.3993C78.9197 27.0804 79.3926 26.8494 79.8974 26.7208C80.4022 26.5922 80.928 26.5687 81.4422 26.6517C81.8049 26.7248 82.1595 26.8334 82.501 26.9758C81.6108 25.3854 79.0437 25.6793 78.5078 27.3993Z" fill="#022F45"/>
</g>
</g>
<defs>
<clipPath id="clip0_51_18137">
<rect width="592" height="56" fill="white" transform="matrix(-1 0 0 1 592 0)"/>
</clipPath>
</defs>
</svg>
