<svg width="1370" height="133" viewBox="0 0 1370 133" fill="none" xmlns="http://www.w3.org/2000/svg">
<path d="M40.8597 108.22L43.6615 63.9603L40.9764 108.22L40.6262 113.047L40.8597 108.22ZM4.08585 10.9771C4.12434 9.95861 4.34166 8.95475 4.72794 8.011C4.42659 8.95146 4.2692 9.93178 4.261 10.919L3.15194 113.221H21.4221H38.0578H20.9551H2.91845L4.08585 10.9771ZM4.08585 3.82352C3.23711 4.78434 2.56529 5.88689 2.10125 7.08043C2.51902 5.86475 3.19606 4.75365 4.08585 3.82352ZM6.01211 5.5101C5.39457 6.26059 4.90189 7.10499 4.55283 8.011C4.81223 7.10157 5.24856 6.25179 5.837 5.5101H6.01211ZM9.10577 3.24189L10.0981 2.83482H11.1488C12.6965 2.64013 14.2684 2.861 15.7017 3.47458L14.3592 3.12564H12.9583H12.5497H11.2655C10.1493 3.27209 9.07582 3.64833 8.11347 4.23059L9.10577 3.24189ZM6.59581 4.92856L7.12117 4.57962L6.01211 5.5101C6.17313 5.28547 6.37036 5.089 6.59581 4.92856ZM20.7217 8.41807L29.5357 35.3459H42.6108H29.4189L20.5465 8.47629C20.1428 7.03507 19.3564 5.72901 18.27 4.69588C19.4464 5.66088 20.3013 6.95876 20.7217 8.41807ZM44.9456 40.0568L45.2959 35.0551L45.004 40.0568L43.4864 63.9603L44.9456 40.0568Z" fill="white"/>
<path d="M3.91124 11.0931C3.94973 10.0746 4.16705 9.07072 4.55333 8.12697C4.25198 9.06743 4.09455 10.0478 4.08635 11.0349L2.97733 113.337H21.2475H37.8832H20.7805H2.74384L3.91124 11.0931ZM3.91124 3.93949C3.0625 4.90031 2.39068 6.00286 1.92664 7.1964C2.38021 5.92321 3.11876 4.76962 4.08635 3.82315L3.91124 3.93949ZM5.8375 5.62607C5.21997 6.37656 4.72728 7.22096 4.37822 8.12697C4.67554 7.16248 5.17268 6.2708 5.8375 5.50973V5.62607ZM8.93116 3.35786L9.92346 2.9507H10.9741C12.5219 2.75601 14.0938 2.97688 15.5271 3.59046L14.1846 3.24152H12.7837H12.3751H11.0909C9.97466 3.38797 8.90121 3.7643 7.93886 4.34656L8.93116 3.35786ZM6.4212 5.04444L6.94656 4.6955L5.8375 5.62607C6.03915 5.34354 6.29755 5.10591 6.59631 4.92819L6.4212 5.04444ZM10.6823 0.159078H12.3751C11.7928 0.101922 11.2062 0.101922 10.6239 0.159078H9.86512H10.6823ZM18.2122 1.67128C18.3751 1.75241 18.5154 1.87224 18.6208 2.02022L18.2122 1.72941L16.8696 1.03152C17.394 1.14745 17.9032 1.32306 18.3873 1.55494L18.2122 1.67128ZM20.547 8.53404L29.5362 35.3455H42.6113H29.4194L20.547 8.47591C20.1433 7.0347 19.3568 5.72864 18.2705 4.6955C19.4469 5.6605 20.3018 6.95839 20.7222 8.4177L20.547 8.53404ZM31.2289 32.612H42.5529H31.1705L22.9986 7.71981L31.2289 32.612Z" fill="white"/>
<path d="M4.08533 11.035C4.12383 10.0165 4.34114 9.01253 4.72742 8.06878C4.42608 9.00923 4.26869 9.98956 4.26049 10.9767L3.15142 113.279H21.4216H38.0573H20.9546H2.91793L4.08533 11.035ZM4.08533 3.8813C3.2366 4.84212 2.56477 5.94466 2.10074 7.13821C2.51086 5.9018 3.18832 4.7702 4.08533 3.82317V3.8813ZM6.01159 5.56797C5.39406 6.31846 4.90137 7.16276 4.55231 8.06878C4.80455 7.13888 5.24121 6.26875 5.83649 5.50975L6.01159 5.56797ZM9.10526 3.29976L10.0976 2.8926H11.1483C12.696 2.6979 14.2679 2.91877 15.7012 3.53235L14.3587 3.18341H12.9578H12.5492H11.265C10.1488 3.32986 9.07531 3.7062 8.11296 4.28846L9.10526 3.29976ZM6.59529 4.98634L7.12066 4.6374L6.01159 5.56797C6.16741 5.32257 6.36493 5.10608 6.59529 4.92821V4.98634ZM10.8564 0.100973H12.5492C11.9669 0.0438163 11.3803 0.0438163 10.798 0.100973H10.0392H10.8564ZM18.3863 1.61308C18.5492 1.69422 18.6895 1.81405 18.7949 1.96203L18.3863 1.6713L17.0437 0.973328C17.5104 1.11994 17.9604 1.3149 18.3863 1.55496V1.61308ZM20.7211 8.47594L29.5352 35.3455H42.6103H29.4184L20.546 8.47594C20.1423 7.03472 19.3558 5.72866 18.2695 4.69552C19.4459 5.66052 20.3008 6.95841 20.7211 8.41772V8.47594ZM31.403 32.5539H42.727H31.3447L23.1727 7.66171L31.403 32.5539Z" fill="white"/>
<path d="M3.91124 10.9771C3.94973 9.95861 4.16705 8.95475 4.55333 8.011C4.25198 8.95146 4.09455 9.93178 4.08635 10.919L2.97733 113.221H21.2475H37.8832H20.7805H2.74384L3.91124 10.9771ZM6.0126 5.5101C5.39507 6.26059 4.90239 7.10499 4.55333 8.011C4.81272 7.10157 5.24906 6.25179 5.8375 5.5101H6.0126ZM6.59631 4.92856L7.12167 4.57962L6.0126 5.5101C6.17363 5.28547 6.37086 5.089 6.59631 4.92856ZM9.10627 3.24189L10.0986 2.83482H11.1493C12.697 2.64013 14.2689 2.861 15.7022 3.47458L14.3597 3.12564H12.9588H12.5502H11.266C10.1498 3.27209 9.07632 3.64833 8.11397 4.23059L9.10627 3.24189ZM20.7222 8.41807L29.5362 35.3459H42.6113H29.4194L20.547 8.47629C20.1433 7.03507 19.3568 5.72901 18.2705 4.69588C19.4469 5.66088 20.3018 6.95876 20.7222 8.41807Z" fill="#FAB615"/>
<path d="M10.7982 0.0428675H12.491C11.9087 -0.0142892 11.3222 -0.0142892 10.7399 0.0428675H9.98106H10.7982ZM18.3281 1.55507C18.491 1.6362 18.6313 1.75603 18.7367 1.90401L18.3281 1.6132L16.9856 0.915311C17.4748 1.07658 17.9446 1.29113 18.3865 1.55507H18.3281ZM31.3449 32.3213H42.6689H31.2865L23.1146 7.42913L31.3449 32.3213ZM40.6259 107.929L43.4277 63.6692L40.7427 107.929L40.3924 112.756L40.6259 107.929Z" fill="#083044"/>
<path d="M3 118H21.5757H38.4896L38.7864 112.96L43 41.7988V36.6379H29.5875L20.5668 8.58605C20.1563 7.08143 19.3567 5.718 18.2522 4.63941C17.942 4.34308 17.6041 4.07866 17.2433 3.85005H16.7092L15.7003 3.36429L14.3353 3H12.911H12.4955H11.1899C10.055 3.15289 8.96358 3.54579 7.98514 4.15366L7.03561 4.82156L5.908 5.79307C5.28014 6.57658 4.77921 7.45803 4.42432 8.4039C4.11794 9.38573 3.95787 10.4092 3.94953 11.4398L3 118Z" fill="#FAB615"/>
<path d="M44.9456 40.0564L45.2959 35.0547L45.004 40.0564L43.4864 63.9599L44.9456 40.0564Z" fill="#083044"/>
<path d="M1.40039 14.4384C1.31787 13.7597 1.31787 13.0736 1.40039 12.3949C1.4939 11.7773 1.65039 11.1707 1.86719 10.5849C2.33105 9.38672 3.00269 8.27988 3.85107 7.31531C4.31787 6.84822 4.7262 6.38116 5.19299 5.97246C5.72021 5.54936 6.28711 5.17786 6.88538 4.86311C7.44531 4.54271 8.03064 4.26931 8.63574 4.04572H9.80261H10.5613C12.1553 3.73783 13.8011 3.83827 15.3459 4.33766C15.8569 4.43427 16.3494 4.61163 16.8047 4.86311L18.1469 5.56372L18.5553 5.85566C18.9937 6.07516 19.3888 6.37187 19.7222 6.73151C20.3074 7.23685 20.8356 7.80457 21.2976 8.42466C21.6427 8.90904 21.9547 9.41617 22.2313 9.94266C22.3824 10.1783 22.5004 10.4338 22.5815 10.7017C22.6044 10.837 22.6044 10.9752 22.5815 11.1104V11.6359L30.7505 36.6251H42.1285H44.8127L1370 35.9245V38.3767L44.696 39.0773L44.3458 44.0984L42.8871 68.0951L40.0863 112.527V117.373L1355.3 117.022H1370.23V119.591H1355.3L38.7443 120H37.4023H28.2997H0L1.40039 14.4384ZM20.7725 117.198H37.8689L38.1608 112.352L42.3036 43.9233V38.9605H29.2333L20.4224 12.1614C20.0021 10.6964 19.1477 9.39342 17.9718 8.42466C17.6669 8.13971 17.3345 7.88545 16.9797 7.66561L15.9877 7.1986C14.5548 6.58263 12.9838 6.3609 11.4365 6.55636H10.3864C10.0259 6.60439 9.68408 6.74517 9.39441 6.96501C8.43823 7.32712 7.57922 7.90684 6.88538 8.65825C6.66455 8.80169 6.46765 8.979 6.30188 9.1837C5.65112 9.91339 5.15466 10.7674 4.8429 11.6943C4.45679 12.6417 4.2395 13.6495 4.20105 14.672L3.03418 117.548L20.7725 117.198Z" fill="#083044"/>
<line x1="45" y1="76" x2="1370" y2="76.0001" stroke="#022F45" stroke-width="2" stroke-dasharray="25 25"/>
<circle cx="685" cy="78" r="54" fill="white" stroke="#022F45" stroke-width="2"/>
<path d="M716.341 75.8643C716.341 75.8643 716.341 75.8823 716.341 75.8901L716.503 75.9107L720.476 76.4089L717.226 75.9804L716.341 75.8643Z" fill="#022F45"/>
<path d="M691.306 55.5659V87.8978H647.369V55.5659H691.306ZM690.746 56.126H647.929V87.3377H690.746V56.126Z" fill="#022F45"/>
<path d="M647.929 56.126V87.3377H656.672C658.022 86.3997 659.627 85.8971 661.272 85.8971C662.916 85.8971 664.521 86.3997 665.871 87.3377H690.746V56.126H647.929Z" fill="white"/>
<path d="M716.442 64.2363L721.036 76.3498L720.44 76.293L717.231 75.9807L716.522 75.911L716.067 75.8671L715.293 75.7897L714.723 75.7355L703.058 74.605V64.2363H716.442ZM703.409 74.272L714.366 75.3328L715.19 75.4129L720.311 75.9085L720.492 75.9265L717.108 67.0163L716.189 64.5925H703.409V74.272Z" fill="#022F45"/>
<path d="M712.637 73.4353L712.768 73.5799L714.356 75.3325L714.689 75.699L714.694 75.7351L716.408 87.353L716.485 87.8796L717.035 87.7996L716.971 87.3556L715.264 75.7893L715.215 75.4512L715.179 75.4125L713.517 73.5799L713.047 73.061L712.637 73.4353Z" fill="#022F45"/>
<path d="M697.905 62.1997V83.2209H698.46V62.7572H710.143L711.97 64.1769L712.048 64.2363L712.283 64.4195L712.52 64.6028L712.719 64.7577L712.84 64.6028L712.982 64.4195L713.06 64.3189L712.954 64.2363L711.217 62.8863L710.334 62.1997H697.905Z" fill="#022F45"/>
<path d="M711.896 64.4194H713.884V73.5801H711.896V64.4194Z" fill="#022F45"/>
<path d="M694.034 87.3918V69.3648C694.034 66.3707 694.034 63.3765 694.034 60.292H715.127C715.243 60.4654 715.345 60.6474 715.432 60.8366C717.497 66.443 719.549 72.0493 721.588 77.6556C721.738 78.0925 721.815 78.5513 721.815 79.0133C721.843 81.9748 721.865 84.9363 721.882 87.8978H721.908L721.888 88.8451C721.888 90.1511 721.894 91.4572 721.908 92.7633C721.886 93.1638 721.841 93.5628 721.774 93.9584H712.701C712.249 93.9584 711.795 93.9584 711.338 93.9584H650.768C650.252 93.9584 649.8 93.9584 649.361 93.9584H647.369V87.3918H694.034ZM715.959 87.348H716.408H721.144V85.6418L719.985 85.252C719.916 83.5304 719.939 81.801 719.985 80.051L721.134 79.7928C721.444 78.5771 721.134 77.5446 720.489 76.4115L720.447 76.2953L720.308 75.9107L717.107 67.016L716.555 65.4802L716.103 64.2257L716.07 64.1328C715.799 63.4023 715.54 62.6925 715.267 61.9801L715.009 61.2651L714.856 60.8547H694.834C694.576 61.9775 694.519 81.6152 694.795 83.2207H698.182L698.461 83.1974L698.931 83.1613C700.769 83.1752 702.586 83.5523 704.278 84.2708C705.97 84.9892 707.504 86.035 708.791 87.348H715.959Z" fill="#022F45"/>
<path d="M715.264 75.792L716.97 87.3557H721.144V85.6495L719.985 85.2598C719.916 83.5381 719.939 81.8087 719.985 80.0587L721.134 79.8006C721.444 78.5848 721.134 77.5524 720.489 76.4192L716.516 75.9211L716.062 75.8772L715.264 75.792Z" fill="white"/>
<path d="M713.516 73.5799L715.179 75.4125L720.3 75.9081L717.107 67.0263L716.188 64.6025H713.883V73.5799H713.516Z" fill="#9AACB5"/>
<path d="M703.398 64.6025V74.2717L714.355 75.3325L712.768 73.5799H711.896V64.6025H703.398Z" fill="#9AACB5"/>
<path d="M698.46 62.7573V83.1977L698.93 83.1616C700.768 83.1755 702.586 83.5526 704.278 84.2711C705.97 84.9896 707.503 86.0353 708.79 87.3483H715.958H716.407L714.693 75.7329L703.029 74.6024V64.2363H712.048L711.97 64.177L710.143 62.7573H698.46Z" fill="white"/>
<path d="M694.79 83.2208H697.906V62.1996H710.334L711.217 62.8862L712.959 64.2362H716.093L716.059 64.1458L715.004 61.2678L714.851 60.8574H694.829C694.558 61.9777 694.514 81.6153 694.79 83.2208Z" fill="white"/>
<path d="M661.271 90.6006C661.935 90.6006 662.584 90.7974 663.136 91.1661C663.687 91.5348 664.118 92.0589 664.372 92.672C664.625 93.2852 664.692 93.9599 664.562 94.6108C664.433 95.2617 664.113 95.8596 663.644 96.3288C663.175 96.7981 662.577 97.1177 661.926 97.2472C661.275 97.3767 660.6 97.3102 659.987 97.0562C659.374 96.8023 658.85 96.3722 658.481 95.8204C658.113 95.2685 657.916 94.6198 657.916 93.9561C657.916 93.0662 658.269 92.2127 658.899 91.5834C659.528 90.9541 660.381 90.6006 661.271 90.6006ZM661.271 96.6948C661.812 96.6948 662.34 96.5346 662.789 96.2345C663.238 95.9345 663.588 95.5079 663.794 95.0089C664.001 94.5099 664.055 93.9608 663.95 93.4311C663.844 92.9014 663.584 92.4148 663.202 92.0328C662.821 91.6509 662.334 91.3908 661.804 91.2855C661.274 91.1801 660.725 91.2342 660.226 91.4409C659.727 91.6476 659.301 91.9976 659.001 92.4467C658.701 92.8958 658.541 93.4238 658.541 93.9639C658.54 94.3228 658.611 94.6783 658.748 95.0101C658.885 95.3419 659.086 95.6434 659.339 95.8975C659.593 96.1515 659.894 96.3532 660.226 96.4909C660.557 96.6285 660.912 96.6996 661.271 96.6999V96.6948Z" fill="white"/>
<path d="M661.271 86.2124C662.803 86.2124 664.3 86.6666 665.573 87.5174C666.847 88.3683 667.839 89.5777 668.425 90.9926C669.011 92.4076 669.165 93.9645 668.866 95.4666C668.567 96.9688 667.83 98.3485 666.747 99.4315C665.664 100.514 664.284 101.252 662.782 101.551C661.28 101.85 659.723 101.696 658.308 101.11C656.893 100.524 655.683 99.5315 654.833 98.258C653.982 96.9846 653.528 95.4875 653.528 93.956C653.532 91.9035 654.349 89.9363 655.8 88.485C657.251 87.0336 659.219 86.2165 661.271 86.2124ZM661.271 101.398C663.242 101.395 665.132 100.612 666.525 99.2179C667.919 97.8243 668.703 95.9346 668.705 93.9637C668.705 92.7758 668.419 91.6054 667.872 90.5507C667.326 89.4961 666.534 88.5881 665.564 87.9031C665.303 87.7128 665.029 87.5404 664.745 87.3868C664.711 87.3662 664.676 87.3481 664.64 87.3326C663.597 86.8 662.442 86.5222 661.271 86.5222C660.1 86.5222 658.946 86.8 657.903 87.3326C657.866 87.3481 657.831 87.3662 657.797 87.3868C657.513 87.5404 657.239 87.7128 656.979 87.9031C656.008 88.5881 655.216 89.4961 654.67 90.5507C654.123 91.6054 653.838 92.7758 653.837 93.9637C653.839 95.9346 654.623 97.8243 656.017 99.2179C657.411 100.612 659.3 101.395 661.271 101.398Z" fill="white"/>
<path d="M655.953 87.8977C656.157 87.7196 656.372 87.5518 656.591 87.3815L656.671 87.3273C658.022 86.3894 659.626 85.8867 661.271 85.8867C662.915 85.8867 664.52 86.3894 665.87 87.3273L665.95 87.3815C666.997 88.1294 667.851 89.1163 668.439 90.2601C669.028 91.404 669.336 92.6718 669.337 93.9583C669.299 96.0723 668.433 98.0869 666.924 99.5685C665.416 101.05 663.386 101.88 661.272 101.88C659.158 101.88 657.128 101.05 655.62 99.5685C654.111 98.0869 653.245 96.0723 653.207 93.9583C653.207 92.8108 653.451 91.6764 653.925 90.6311C654.399 89.5859 655.09 88.6539 655.953 87.8977ZM653.837 93.9635C653.837 95.9351 654.62 97.8259 656.014 99.22C657.408 100.614 659.299 101.397 661.271 101.397C663.242 101.397 665.133 100.614 666.527 99.22C667.921 97.8259 668.705 95.9351 668.705 93.9635C668.704 92.7756 668.419 91.6052 667.872 90.5505C667.325 89.4959 666.534 88.5879 665.563 87.9029C665.302 87.7126 665.029 87.5402 664.745 87.3866C664.711 87.366 664.676 87.3479 664.639 87.3324C663.596 86.7998 662.442 86.522 661.271 86.522C660.1 86.522 658.945 86.7998 657.902 87.3324C657.866 87.3479 657.83 87.366 657.796 87.3866C657.512 87.5402 657.239 87.7126 656.978 87.9029C656.008 88.5879 655.216 89.4959 654.669 90.5505C654.123 91.6052 653.837 92.7756 653.837 93.9635Z" fill="#022F45"/>
<path d="M656.979 87.898C657.24 87.7077 657.513 87.5352 657.797 87.3817C657.831 87.3611 657.866 87.343 657.903 87.3275C658.946 86.7948 660.1 86.5171 661.271 86.5171C662.442 86.5171 663.597 86.7948 664.64 87.3275C664.676 87.343 664.712 87.3611 664.746 87.3817C665.03 87.5352 665.303 87.7077 665.564 87.898C666.534 88.583 667.326 89.491 667.873 90.5456C668.419 91.6003 668.705 92.7707 668.705 93.9586C668.705 95.9302 667.922 97.821 666.528 99.2151C665.134 100.609 663.243 101.392 661.271 101.392C659.3 101.392 657.409 100.609 656.015 99.2151C654.621 97.821 653.837 95.9302 653.837 93.9586C653.838 92.7707 654.123 91.6003 654.67 90.5456C655.217 89.491 656.008 88.583 656.979 87.898ZM661.271 97.3244C661.935 97.3244 662.584 97.1277 663.136 96.7589C663.687 96.3902 664.117 95.8662 664.371 95.253C664.625 94.6399 664.692 93.9652 664.562 93.3143C664.433 92.6634 664.113 92.0655 663.644 91.5962C663.175 91.1269 662.577 90.8073 661.926 90.6778C661.275 90.5484 660.6 90.6148 659.987 90.8688C659.374 91.1228 658.85 91.5529 658.481 92.1047C658.113 92.6565 657.916 93.3052 657.916 93.9689C657.916 94.8589 658.269 95.7123 658.899 96.3416C659.528 96.9709 660.381 97.3244 661.271 97.3244Z" fill="white"/>
<path d="M661.271 90.6006C661.935 90.6006 662.584 90.7974 663.136 91.1661C663.687 91.5348 664.118 92.0589 664.372 92.672C664.625 93.2852 664.692 93.9599 664.562 94.6108C664.433 95.2617 664.113 95.8596 663.644 96.3288C663.175 96.7981 662.577 97.1177 661.926 97.2472C661.275 97.3767 660.6 97.3102 659.987 97.0562C659.374 96.8023 658.85 96.3722 658.481 95.8204C658.113 95.2685 657.916 94.6198 657.916 93.9561C657.916 93.0662 658.269 92.2127 658.899 91.5834C659.528 90.9541 660.381 90.6006 661.271 90.6006ZM661.271 96.6948C661.812 96.6948 662.34 96.5346 662.789 96.2345C663.238 95.9345 663.588 95.5079 663.794 95.0089C664.001 94.5099 664.055 93.9608 663.95 93.4311C663.844 92.9014 663.584 92.4148 663.202 92.0328C662.821 91.6509 662.334 91.3908 661.804 91.2855C661.274 91.1801 660.725 91.2342 660.226 91.4409C659.727 91.6476 659.301 91.9976 659.001 92.4467C658.701 92.8958 658.541 93.4238 658.541 93.9639C658.54 94.3228 658.611 94.6783 658.748 95.0101C658.885 95.3419 659.086 95.6434 659.339 95.8975C659.593 96.1515 659.894 96.3532 660.226 96.4909C660.557 96.6285 660.912 96.6996 661.271 96.6999V96.6948Z" fill="#022F45"/>
<path d="M658.573 94.4095C658.331 92.9207 659.342 91.518 660.831 91.2763C662.319 91.0347 663.722 92.0456 663.964 93.5344C664.205 95.0231 663.194 96.4259 661.706 96.6675C660.217 96.9092 658.814 95.8982 658.573 94.4095Z" fill="white"/>
<path d="M700.882 90.6006C701.545 90.6006 702.194 90.7974 702.746 91.1661C703.298 91.5348 703.728 92.0589 703.982 92.672C704.236 93.2852 704.302 93.9599 704.173 94.6108C704.043 95.2617 703.724 95.8596 703.254 96.3288C702.785 96.7981 702.187 97.1177 701.536 97.2472C700.885 97.3767 700.211 97.3102 699.598 97.0562C698.985 96.8023 698.46 96.3722 698.092 95.8204C697.723 95.2685 697.526 94.6198 697.526 93.9561C697.526 93.0662 697.88 92.2127 698.509 91.5834C699.138 90.9541 699.992 90.6006 700.882 90.6006ZM700.882 96.6948C701.422 96.6948 701.95 96.5346 702.399 96.2345C702.848 95.9345 703.198 95.5079 703.405 95.0089C703.611 94.5099 703.666 93.9608 703.56 93.4311C703.455 92.9014 703.195 92.4148 702.813 92.0328C702.431 91.6509 701.944 91.3908 701.415 91.2855C700.885 91.1801 700.336 91.2342 699.837 91.4409C699.338 91.6476 698.911 91.9976 698.611 92.4467C698.311 92.8958 698.151 93.4238 698.151 93.9639C698.151 94.6886 698.438 95.3838 698.95 95.8967C699.462 96.4097 700.157 96.6986 700.882 96.6999V96.6948Z" fill="white"/>
<path d="M700.882 86.2124C702.414 86.2124 703.911 86.6666 705.185 87.5174C706.458 88.3683 707.45 89.5777 708.037 90.9926C708.623 92.4076 708.776 93.9645 708.477 95.4666C708.178 96.9688 707.441 98.3485 706.358 99.4315C705.275 100.514 703.895 101.252 702.393 101.551C700.891 101.85 699.334 101.696 697.919 101.11C696.504 100.524 695.295 99.5315 694.444 98.258C693.593 96.9846 693.139 95.4875 693.139 93.956C693.142 91.9033 693.959 89.9357 695.411 88.4842C696.862 87.0327 698.83 86.2158 700.882 86.2124ZM700.882 101.398C702.353 101.398 703.792 100.962 705.015 100.145C706.238 99.3284 707.192 98.167 707.755 96.8081C708.318 95.4492 708.465 93.9537 708.179 92.511C707.892 91.0682 707.183 89.7429 706.143 88.7028C705.103 87.6626 703.778 86.9543 702.335 86.6675C700.892 86.3806 699.397 86.5281 698.038 87.0913C696.679 87.6545 695.518 88.608 694.701 89.8313C693.884 91.0546 693.448 92.4927 693.449 93.9637C693.451 95.9346 694.235 97.8243 695.628 99.2179C697.022 100.612 698.911 101.395 700.882 101.398Z" fill="white"/>
<path d="M700.882 85.8975C702.478 85.8954 704.039 86.3668 705.367 87.2518C706.694 88.1369 707.73 89.396 708.342 90.8697C708.954 92.3434 709.115 93.9656 708.805 95.531C708.495 97.0963 707.728 98.5346 706.6 99.6637C705.472 100.793 704.035 101.562 702.47 101.874C700.905 102.186 699.283 102.027 697.808 101.417C696.334 100.807 695.073 99.7728 694.187 98.4461C693.3 97.1194 692.827 95.5595 692.827 93.9637C692.827 91.8262 693.675 89.776 695.185 88.2636C696.696 86.7512 698.745 85.9002 700.882 85.8975ZM700.882 101.397C702.353 101.398 703.792 100.962 705.015 100.145C706.238 99.3284 707.192 98.167 707.755 96.8081C708.318 95.4491 708.466 93.9537 708.179 92.5109C707.892 91.0682 707.184 89.7429 706.143 88.7028C705.103 87.6626 703.778 86.9543 702.335 86.6675C700.892 86.3806 699.397 86.5281 698.038 87.0912C696.679 87.6544 695.518 88.6079 694.701 89.8313C693.884 91.0546 693.448 92.4927 693.449 93.9637C693.451 95.9346 694.235 97.8242 695.628 99.2179C697.022 100.612 698.912 101.395 700.882 101.397Z" fill="#022F45"/>
<path d="M700.882 86.5273C702.353 86.5268 703.791 86.9625 705.014 87.7793C706.238 88.5961 707.191 89.7574 707.754 91.1162C708.318 92.4749 708.465 93.9702 708.179 95.4129C707.892 96.8556 707.184 98.1809 706.144 99.2211C705.104 100.261 703.779 100.97 702.337 101.257C700.894 101.544 699.399 101.397 698.04 100.834C696.681 100.272 695.519 99.3184 694.702 98.0954C693.885 96.8725 693.449 95.4346 693.449 93.9637C693.451 91.9926 694.234 90.1026 695.628 88.7086C697.022 87.3145 698.911 86.5301 700.882 86.5273ZM700.882 97.3244C701.546 97.3244 702.195 97.1276 702.747 96.7589C703.298 96.3902 703.728 95.8661 703.982 95.253C704.236 94.6399 704.303 93.9652 704.173 93.3143C704.044 92.6634 703.724 92.0654 703.255 91.5962C702.786 91.1269 702.188 90.8073 701.537 90.6778C700.886 90.5484 700.211 90.6148 699.598 90.8688C698.985 91.1227 698.461 91.5528 698.092 92.1046C697.724 92.6565 697.527 93.3052 697.527 93.9689C697.527 94.8588 697.88 95.7123 698.51 96.3416C699.139 96.9709 699.992 97.3244 700.882 97.3244Z" fill="white"/>
<path d="M700.882 90.6006C701.545 90.6006 702.194 90.7974 702.746 91.1661C703.298 91.5348 703.728 92.0589 703.982 92.672C704.236 93.2852 704.302 93.9599 704.173 94.6108C704.043 95.2617 703.724 95.8596 703.254 96.3288C702.785 96.7981 702.187 97.1177 701.536 97.2472C700.885 97.3767 700.211 97.3102 699.598 97.0562C698.985 96.8023 698.46 96.3722 698.092 95.8204C697.723 95.2685 697.526 94.6198 697.526 93.9561C697.526 93.0662 697.88 92.2127 698.509 91.5834C699.138 90.9541 699.992 90.6006 700.882 90.6006ZM700.882 96.6948C701.422 96.6948 701.95 96.5346 702.399 96.2345C702.848 95.9345 703.198 95.5079 703.405 95.0089C703.611 94.5099 703.666 93.9608 703.56 93.4311C703.455 92.9014 703.195 92.4148 702.813 92.0328C702.431 91.6509 701.944 91.3908 701.415 91.2855C700.885 91.1801 700.336 91.2342 699.837 91.4409C699.338 91.6476 698.911 91.9976 698.611 92.4467C698.311 92.8958 698.151 93.4238 698.151 93.9639C698.151 94.6886 698.438 95.3838 698.95 95.8967C699.462 96.4097 700.157 96.6986 700.882 96.6999V96.6948Z" fill="#022F45"/>
<path d="M698.95 95.8944C697.884 94.8279 697.884 93.0988 698.95 92.0323C700.017 90.9659 701.746 90.9659 702.812 92.0323C703.879 93.0988 703.879 94.8279 702.812 95.8944C701.746 96.9609 700.017 96.9609 698.95 95.8944Z" fill="white"/>
<circle cx="175" cy="78" r="54" fill="white" stroke="#022F45" stroke-width="2"/>
<g clip-path="url(#clip0_51_8657)">
<path d="M201.723 89.8303C201.723 91.7222 201.513 97.9936 198.855 103.774C198.221 105.175 197.439 106.504 196.521 107.738C196.003 108.456 195.416 109.122 194.769 109.726C191.598 112.735 186.781 114.311 180.952 114.311C179.556 114.308 178.161 114.225 176.774 114.062C169.68 113.189 162.887 110.674 156.935 106.717C146.021 99.2724 141.878 87.8858 140.381 81.7546C139.233 77.165 137.188 64.8588 144.598 54.1642C146.156 51.8972 147.996 49.837 150.072 48.033C150.07 48.0155 150.07 47.9979 150.072 47.9804H150.116C152.661 45.7802 155.591 44.0684 158.757 42.9309C161.702 41.908 164.792 41.3653 167.91 41.3237C179.761 41.223 188.787 49.0315 192.435 52.7759L206.291 44.8929C206.576 44.7316 206.914 44.69 207.23 44.777C207.546 44.864 207.815 45.0726 207.977 45.3572C208.139 45.6425 208.18 45.98 208.093 46.296C208.006 46.612 207.798 46.8807 207.513 47.0432L194.191 54.6109C196.662 57.4097 198.46 60.7368 199.446 64.3376C200.319 67.5339 200.538 70.8734 200.09 74.1563C202.932 72.7461 205.84 72.5359 208.017 73.7972C208.76 74.2307 209.405 74.8138 209.911 75.5097C210.416 76.2055 210.772 76.9989 210.955 77.8394C211.879 81.9692 207.999 86.9574 201.723 89.8303Z" fill="white"/>
<path d="M213.14 77.375C212.893 76.2345 212.411 75.1578 211.726 74.2132C211.041 73.2686 210.167 72.4767 209.159 71.8875C207.138 70.7897 204.783 70.4777 202.546 71.0117C202.563 68.5638 202.245 66.1252 201.6 63.7637C200.765 60.7055 199.386 57.823 197.527 55.2545L208.625 48.9481C209.412 48.4957 209.988 47.7505 210.227 46.8751C210.467 45.9998 210.35 45.0652 209.904 44.2752C209.452 43.4889 208.708 42.9128 207.834 42.6725C206.959 42.4321 206.025 42.547 205.235 42.992L192.82 50.0473C188.58 46.0138 179.655 39.1294 168.177 39.1294H167.931C164.568 39.1831 161.236 39.7745 158.06 40.8812C154.982 41.988 152.11 43.5982 149.559 45.646L148.145 46.846C146.147 48.6669 144.365 50.7108 142.833 52.9377C136.115 62.6382 136.631 73.4773 137.713 79.591H137.612L138.274 82.3019C139.846 88.744 144.203 100.695 155.726 108.552C161.98 112.699 169.114 115.33 176.563 116.238C178.034 116.41 179.514 116.498 180.995 116.501C187.446 116.501 192.745 114.71 196.323 111.316C197.061 110.62 197.73 109.854 198.32 109.03C199.324 107.678 200.18 106.223 200.873 104.69C203.225 99.5831 203.794 94.2227 203.913 91.2096C210.407 87.7937 214.174 82.2449 213.14 77.375ZM200.812 87.8287L199.533 88.4156V89.8213C199.533 91.5162 199.341 97.4678 196.862 102.855C196.294 104.113 195.592 105.307 194.768 106.415L194.733 106.463C194.306 107.064 193.82 107.621 193.284 108.127C190.538 110.755 186.277 112.113 180.973 112.113C179.656 112.111 178.34 112.032 177.032 111.876C170.288 111.053 163.829 108.667 158.169 104.909C148.583 98.3875 144.514 88.5645 142.841 82.5296L142.513 81.2158C141.396 76.7531 139.544 65.3053 146.406 55.3771C147.826 53.3053 149.495 51.4166 151.377 49.7539L151.561 49.5962C153.903 47.5725 156.597 45.9974 159.51 44.9496C162.223 44.0064 165.072 43.5066 167.944 43.4694H168.15C179.204 43.4694 187.704 51.002 190.862 54.2559L192.04 55.4734L192.535 56.034C194.801 58.577 196.45 61.6089 197.352 64.8936C198.144 67.8054 198.342 70.8465 197.935 73.8364L197.379 77.9268L201.079 76.0918C203.335 74.9707 205.459 74.8174 206.939 75.6539C207.416 75.9347 207.83 76.3105 208.155 76.758C208.48 77.2055 208.71 77.7152 208.831 78.2553C209.505 81.3384 206.045 85.4419 200.812 87.8375V87.8287Z" fill="white"/>
<path d="M210.998 77.835C210.815 76.9941 210.459 76.2003 209.953 75.5038C209.447 74.8073 208.802 74.2232 208.06 73.7884C205.87 72.5315 202.979 72.7418 200.133 74.1475C200.581 70.8647 200.362 67.5252 199.489 64.3289C198.502 60.7297 196.704 57.4042 194.234 54.6065L207.556 47.0345C207.84 46.8727 208.049 46.6049 208.136 46.2896C208.223 45.9743 208.181 45.6374 208.02 45.3528C207.94 45.2114 207.833 45.0873 207.705 44.9874C207.577 44.8876 207.43 44.8139 207.273 44.7708C207.117 44.7277 206.953 44.7159 206.792 44.7361C206.631 44.7563 206.475 44.8081 206.334 44.8885L192.478 52.7715C188.847 49.0271 179.825 41.2186 167.953 41.3193C164.835 41.3592 161.744 41.9019 158.8 42.9265C155.633 44.064 152.704 45.7758 150.159 47.976H150.115C150.113 47.9935 150.113 48.0111 150.115 48.0286C148.038 49.8324 146.199 51.8926 144.641 54.1598C137.231 64.8631 139.276 77.1694 140.424 81.7502C141.921 87.8815 146.064 99.268 156.982 106.713C162.932 110.671 169.724 113.184 176.817 114.053C178.203 114.22 179.598 114.304 180.995 114.307C186.824 114.307 191.641 112.726 194.816 109.722C195.453 109.116 196.031 108.45 196.542 107.733C197.461 106.499 198.243 105.169 198.876 103.766C201.534 97.9848 201.744 91.7178 201.744 89.8259C207.998 86.9574 211.878 81.9648 210.998 77.835ZM151.438 48.8125C153.474 47.106 155.763 45.7248 158.222 44.7178C163.539 46.5701 168.418 49.4964 172.556 53.3146C174.857 55.4417 176.905 57.8267 178.66 60.4224L154.341 74.1475C153.035 71.2422 152.062 68.198 151.442 65.0733C150.393 59.7034 150.398 54.1808 151.455 48.8125H151.438ZM167.948 42.7864H168.189C179.006 42.7864 187.371 49.7541 191.037 53.4372L179.952 59.6954C178.118 56.9734 175.972 54.4748 173.558 52.2504C169.714 48.6989 165.244 45.8909 160.376 43.9689C162.839 43.2211 165.393 42.8202 167.966 42.7777L167.948 42.7864ZM145.832 54.9963C146.962 53.3533 148.245 51.8209 149.664 50.4197C148.91 55.3807 149.021 60.435 149.993 65.358C150.647 68.6386 151.675 71.8332 153.058 74.8789L141.794 81.2335C140.699 76.7183 138.86 65.0865 145.85 54.9963H145.832ZM200.667 88.6741L200.229 88.8756V89.3749C200.251 90.1325 200.356 96.9469 197.501 103.157C196.906 104.468 196.171 105.712 195.311 106.866C194.851 107.51 194.331 108.109 193.756 108.653C186.04 115.967 168.601 112.862 157.771 105.496C155.534 103.974 153.477 102.204 151.639 100.218C154.893 99.0446 157.188 96.2768 157.495 93.093C157.827 89.6902 155.743 87.2464 155.335 86.7866C158.9 87.0318 161.905 84.3779 162.181 81.2028C162.4 78.5752 160.735 76.0745 158.239 75.0322L192.876 55.351C195.309 58.0264 197.078 61.237 198.039 64.723C198.968 68.1081 199.118 71.6597 198.477 75.111C197.225 75.9568 196.087 76.9607 195.092 78.0978L196.205 79.0744C199.708 75.0629 204.394 73.3811 207.315 75.0672C207.875 75.4005 208.362 75.844 208.746 76.371C209.13 76.8979 209.403 77.4973 209.549 78.1328C210.311 81.6889 206.579 86.1341 200.685 88.6741H200.667Z" fill="#022F45"/>
<path d="M181.1 97.205C177.863 96.7014 175.179 95.1116 172.717 92.9438C173.31 92.292 174.038 91.7778 174.85 91.4373C175.8 91.0424 176.817 90.8328 177.846 90.8198C175.875 89.414 172.875 90.0665 171.334 91.9059C169.718 93.6795 169.464 96.7232 171.106 98.5057C170.844 96.679 171.307 94.8223 172.398 93.3336C172.969 94.7297 173.855 95.9751 174.986 96.9729C176.969 98.7332 179.53 99.7041 182.181 99.7013C185.177 99.7013 188.313 98.4225 190.174 96.0576C187.24 97.0823 184.17 97.7086 181.1 97.205Z" fill="#022F45"/>
<path d="M185.059 76.3809C182.375 76.7006 179.957 75.2204 178.341 72.8774C178.175 76.3809 181.88 79.3327 185.379 78.7809C188.909 78.3823 191.668 74.5197 190.477 71.1606C189.623 73.8715 187.735 75.9999 185.059 76.3809Z" fill="#022F45"/>
<path d="M181.818 67.8718C183.885 66.466 186.145 65.6383 188.611 66.1419C189.45 66.3097 190.27 66.5606 191.059 66.8908C188.992 63.2077 183.058 63.8865 181.818 67.8718Z" fill="#022F45"/>
</g>
<circle cx="1195" cy="78" r="54" fill="white" stroke="#022F45" stroke-width="2"/>
<path d="M1222.72 50H1167.09V105.122H1222.72V50Z" fill="#ECF1F5" stroke="#022F45" stroke-width="1.13" stroke-miterlimit="10"/>
<path d="M1171.52 90.6741V54.1274H1199.02" stroke="#022F45" stroke-width="1.13" stroke-miterlimit="10"/>
<path d="M1219.05 67.7354V101.442H1188.28" stroke="#022F45" stroke-width="1.13" stroke-miterlimit="10"/>
<path d="M1171.43 96.6743L1213.45 54.2842" stroke="#022F45" stroke-width="1.13" stroke-miterlimit="10"/>
<path d="M1176.83 101.46L1218.84 58.8042" stroke="#022F45" stroke-width="1.13" stroke-miterlimit="10"/>
<path d="M1177.3 57.8677V83.6099" stroke="#022F45" stroke-width="1.13" stroke-miterlimit="10"/>
<path d="M1184.53 57.1851V77.8695" stroke="#022F45" stroke-width="1.13" stroke-miterlimit="10"/>
<path d="M1191.66 56.6953V71.204" stroke="#022F45" stroke-width="1.13" stroke-miterlimit="10"/>
<path d="M1198.24 56.5444V65.7657" stroke="#022F45" stroke-width="1.13" stroke-miterlimit="10"/>
<path d="M1213.77 70.8599V94.1064" stroke="#022F45" stroke-width="1.13" stroke-miterlimit="10"/>
<path d="M1206.56 76.8662V98.2335" stroke="#022F45" stroke-width="1.13" stroke-miterlimit="10"/>
<path d="M1199.06 98.2336V81.4468" stroke="#022F45" stroke-width="1.13" stroke-miterlimit="10"/>
<path d="M1191.89 90.4321V98.5536" stroke="#022F45" stroke-width="1.13" stroke-miterlimit="10"/>
<path d="M1215.55 85.594L1200.01 80.0005L1196.24 90.4796L1211.78 96.0731L1215.55 85.594Z" fill="#F9F9F6" stroke="#022F45" stroke-width="1.01" stroke-miterlimit="10"/>
<defs>
<clipPath id="clip0_51_8657">
<rect width="76.246" height="77.3802" fill="white" transform="translate(137.069 39.1206)"/>
</clipPath>
</defs>
</svg>
